<svg width="76" height="76" viewBox="0 0 76 76" fill="none" xmlns="http://www.w3.org/2000/svg">
<path d="M65.3125 68.2146C66.1094 68.2146 66.8737 67.8986 67.4379 67.3359C68.0006 66.7717 68.3166 66.0074 68.3166 65.2106C68.3167 64.4136 68.0006 63.6491 67.4377 63.0848L56.1504 51.7977L48.9072 48.8053L51.8995 56.0482L63.1867 67.3354L65.3125 68.2146ZM65.3125 68.2146C64.5157 68.2146 63.7514 67.8986 63.1872 67.3359L65.3125 68.2146ZM59.5485 46.9032L59.47 46.8246L59.3674 46.7822L50.7442 43.2196C53.6408 38.8627 55.1877 33.7416 55.1819 28.4994C55.1816 13.7867 43.2128 1.81811 28.5 1.81811C13.787 1.81811 1.81811 13.787 1.81811 28.5C1.81811 43.2128 13.7867 55.1816 28.4994 55.1819C33.788 55.1879 38.9523 53.6138 43.333 50.6696L46.8842 59.2645L46.9266 59.3671L47.0051 59.4456L59.0406 71.4821C59.8642 72.3058 60.8419 72.9591 61.918 73.4049C62.9941 73.8507 64.1475 74.0801 65.3122 74.0802C66.477 74.0802 67.6304 73.8508 68.7065 73.4051C69.7826 72.9594 70.7604 72.3061 71.584 71.4825C72.4077 70.6589 73.061 69.6812 73.5068 68.6051C73.9526 67.529 74.182 66.3757 74.1821 65.2109C74.1821 64.0461 73.9527 62.8927 73.507 61.8166C73.0613 60.7405 72.408 59.7627 71.5844 58.9391L59.5485 46.9032ZM7.68189 28.5C7.68189 17.0216 17.0216 7.68189 28.5 7.68189C39.9784 7.68189 49.3181 17.0216 49.3181 28.5C49.3181 39.9784 39.9784 49.3181 28.5 49.3181C17.0216 49.3181 7.68189 39.9784 7.68189 28.5Z" fill="#18C29C" stroke="#18C29C" stroke-width="1.11379"/>
</svg>
