<svg width="16" height="14" viewBox="0 0 16 14" fill="none" xmlns="http://www.w3.org/2000/svg">
<path d="M7.8335 11.074C8.771 11.074 9.568 10.75 10.2245 10.1021C10.8805 9.45374 11.2085 8.66658 11.2085 7.74066C11.2085 6.81473 10.8805 6.02757 10.2245 5.37918C9.568 4.73128 8.771 4.40733 7.8335 4.40733C6.896 4.40733 6.099 4.73128 5.4425 5.37918C4.7865 6.02757 4.4585 6.81473 4.4585 7.74066C4.4585 8.66658 4.7865 9.45374 5.4425 10.1021C6.099 10.75 6.896 11.074 7.8335 11.074ZM7.8335 9.59251C7.3085 9.59251 6.86475 9.4135 6.50225 9.05547C6.13975 8.69745 5.9585 8.25918 5.9585 7.74066C5.9585 7.22214 6.13975 6.78387 6.50225 6.42584C6.86475 6.06782 7.3085 5.88881 7.8335 5.88881C8.3585 5.88881 8.80225 6.06782 9.16475 6.42584C9.52725 6.78387 9.7085 7.22214 9.7085 7.74066C9.7085 8.25918 9.52725 8.69745 9.16475 9.05547C8.80225 9.4135 8.3585 9.59251 7.8335 9.59251ZM1.8335 13.6666C1.421 13.6666 1.068 13.5216 0.774496 13.2318C0.480496 12.9414 0.333496 12.5925 0.333496 12.1851V3.29621C0.333496 2.88881 0.480496 2.54017 0.774496 2.25029C1.068 1.95992 1.421 1.81473 1.8335 1.81473H4.196L5.5835 0.333252H10.0835L11.471 1.81473H13.8335C14.246 1.81473 14.5992 1.95992 14.8932 2.25029C15.1867 2.54017 15.3335 2.88881 15.3335 3.29621V12.1851C15.3335 12.5925 15.1867 12.9414 14.8932 13.2318C14.5992 13.5216 14.246 13.6666 13.8335 13.6666H1.8335ZM13.8335 12.1851V3.29621H10.796L9.42725 1.81473H6.23975L4.871 3.29621H1.8335V12.1851H13.8335Z" fill="#F2F2F2"/>
</svg>
