<svg width="16" height="16" viewBox="0 0 16 16" fill="#18C29C" xmlns="http://www.w3.org/2000/svg">
<path d="M14.0833 5.43749L10.5417 1.93749L11.7083 0.770823C12.0278 0.451379 12.4203 0.291656 12.8858 0.291656C13.3508 0.291656 13.7431 0.451379 14.0625 0.770823L15.2292 1.93749C15.5486 2.25693 15.7153 2.64249 15.7292 3.09416C15.7431 3.54527 15.5903 3.93055 15.2708 4.24999L14.0833 5.43749ZM1.33333 15.5C1.09722 15.5 0.899445 15.42 0.74 15.26C0.58 15.1005 0.5 14.9028 0.5 14.6667V12.3125C0.5 12.2014 0.520833 12.0939 0.5625 11.99C0.604167 11.8855 0.666667 11.7917 0.75 11.7083L9.33333 3.12499L12.875 6.66666L4.29167 15.25C4.20833 15.3333 4.11472 15.3958 4.01083 15.4375C3.90639 15.4792 3.79861 15.5 3.6875 15.5H1.33333Z" fill="#18C29C"/>
</svg>
