<svg width="72" height="23" viewBox="0 0 72 23" fill="none" xmlns="http://www.w3.org/2000/svg">
<path d="M31.66 16V7.24H33.46V16H31.66ZM39.1332 10H40.9332V16H39.1332V15.436C38.7372 15.892 38.1492 16.168 37.3452 16.168C35.7732 16.168 34.4772 14.788 34.4772 13C34.4772 11.212 35.7732 9.832 37.3452 9.832C38.1492 9.832 38.7372 10.108 39.1332 10.564V10ZM37.7052 14.464C38.5332 14.464 39.1332 13.9 39.1332 13C39.1332 12.1 38.5332 11.536 37.7052 11.536C36.8772 11.536 36.2772 12.1 36.2772 13C36.2772 13.9 36.8772 14.464 37.7052 14.464ZM45.7698 9.832C46.9818 9.832 48.0138 10.696 48.0138 12.316V16H46.2138V12.58C46.2138 11.836 45.7458 11.488 45.1698 11.488C44.5098 11.488 44.0538 11.872 44.0538 12.724V16H42.2538V10H44.0538V10.564C44.3778 10.12 44.9778 9.832 45.7698 9.832ZM52.1298 16.168C50.3058 16.168 48.9498 14.788 48.9498 13C48.9498 11.212 50.3058 9.832 52.1298 9.832C53.2938 9.832 54.3258 10.444 54.8418 11.368L53.2698 12.28C53.0658 11.86 52.6338 11.608 52.1058 11.608C51.3258 11.608 50.7498 12.172 50.7498 13C50.7498 13.828 51.3258 14.392 52.1058 14.392C52.6338 14.392 53.0778 14.14 53.2698 13.72L54.8418 14.62C54.3258 15.556 53.3058 16.168 52.1298 16.168ZM57.0571 13.72C57.2851 14.344 57.8371 14.56 58.4971 14.56C58.9891 14.56 59.4091 14.368 59.6491 14.104L61.0891 14.932C60.5011 15.748 59.6131 16.168 58.4731 16.168C56.4211 16.168 55.1491 14.788 55.1491 13C55.1491 11.212 56.4451 9.832 58.3411 9.832C60.0931 9.832 61.3891 11.188 61.3891 13C61.3891 13.252 61.3651 13.492 61.3171 13.72H57.0571ZM57.0211 12.376H59.6011C59.4091 11.68 58.8691 11.428 58.3291 11.428C57.6451 11.428 57.1891 11.764 57.0211 12.376ZM64.21 11.068C64.45 10.264 65.254 9.88 66.01 9.88V11.92C65.266 11.8 64.21 12.1 64.21 13.288V16H62.41V10H64.21V11.068ZM68.3796 11.752C68.3796 12.436 71.3316 11.98 71.3316 14.2C71.3316 15.58 70.1316 16.168 68.8356 16.168C67.6356 16.168 66.7236 15.712 66.2556 14.74L67.8156 13.852C67.9716 14.308 68.3076 14.56 68.8356 14.56C69.2676 14.56 69.4836 14.428 69.4836 14.188C69.4836 13.528 66.5316 13.876 66.5316 11.8C66.5316 10.492 67.6356 9.832 68.8836 9.832C69.8556 9.832 70.7196 10.264 71.2236 11.116L69.6876 11.944C69.5196 11.632 69.2796 11.416 68.8836 11.416C68.5716 11.416 68.3796 11.536 68.3796 11.752Z" fill="white"/>
<rect width="29" height="23" rx="5" fill="white"/>
<path d="M9.82 9.448H6.64V11.068H9.76V12.916H6.64V16H4.72V7.6H9.82V9.448ZM14.1344 16.168C12.2864 16.168 10.8944 15.088 10.8944 13.288V7.6H12.8144V13.12C12.8144 13.756 13.1144 14.296 14.1344 14.296C15.1544 14.296 15.4544 13.756 15.4544 13.12V7.6H17.3744V13.288C17.3744 15.088 15.9824 16.168 14.1344 16.168ZM20.6791 14.152H24.0391V16H18.7591V7.6H23.9791V9.448H20.6791V10.84H23.6791V12.664H20.6791V14.152Z" fill="#009EFF"/>
</svg>
