<svg width="16" height="16" viewBox="0 0 16 16" fill="none" xmlns="http://www.w3.org/2000/svg">
<path d="M11.2619 11.2L10.6452 12.3595L13.6644 11.8659C13.0552 11.5603 12.2304 11.3419 11.2619 11.2ZM3.48427 11.4528C2.08587 11.8216 1.19995 12.4259 1.19995 13.3235C1.20053 13.5167 1.24277 13.7076 1.32379 13.883L6.16939 13.091L3.48427 11.4528ZM14.6864 12.8L7.94235 13.8992L9.72091 15.9225C12.6416 15.6609 14.8 14.728 14.8 13.3235C14.8 13.1363 14.7596 12.9622 14.6864 12.8ZM6.80283 14.0888L2.24603 14.8336C3.45051 15.5798 5.57643 16 7.99995 16C8.14683 16 8.29035 15.9958 8.43499 15.9928L6.80283 14.0888Z" fill="#18C29C"/>
<path d="M8.00028 0C5.39228 0 3.25244 2.13328 3.25244 4.73536C3.25244 5.73568 3.57036 6.66752 4.10716 7.43376L7.1846 12.7538L7.19772 12.7709C7.31916 12.9294 7.43772 13.0546 7.57692 13.1466C7.71612 13.2387 7.88892 13.2938 8.05852 13.2768C8.3974 13.2429 8.60492 13.0035 8.80188 12.7366L8.81244 12.7229L12.2099 6.94032L12.2118 6.93664C12.2915 6.79264 12.3504 6.64608 12.4003 6.50336C12.6295 5.94208 12.7474 5.34162 12.7475 4.73536C12.7475 2.13328 10.6083 0 8.00028 0ZM8.00028 2.7272C9.13164 2.7272 10.0147 3.60864 10.0147 4.7352C10.0147 5.86208 9.13164 6.7432 8.00028 6.7432C6.86876 6.7432 5.98524 5.86192 5.98524 4.7352C5.98524 3.6088 6.86892 2.7272 8.00028 2.7272Z" fill="#18C29C"/>
</svg>
