<svg width="25" height="25" viewBox="0 0 25 25" fill="none" xmlns="http://www.w3.org/2000/svg">
<path d="M3.00462 6.00924C4.66403 6.00924 6.00924 4.66403 6.00924 3.00462C6.00924 1.34521 4.66403 0 3.00462 0C1.34521 0 0 1.34521 0 3.00462C0 4.66403 1.34521 6.00924 3.00462 6.00924Z" fill="#5B5B5B"/>
<path d="M8.84647 8.28697V24.9566H14.0222V16.7131C14.0222 14.5379 14.4314 12.4314 17.1284 12.4314C19.7883 12.4314 19.8213 14.9183 19.8213 16.8504V24.9579H24.9997V15.8164C24.9997 11.3259 24.033 7.875 18.7845 7.875C16.2646 7.875 14.5756 9.25784 13.8848 10.5665H13.8148V8.28697H8.84647ZM0.412109 8.28697H5.59604V24.9566H0.412109V8.28697Z" fill="#5B5B5B"/>
</svg>
