<svg width="18" height="18" viewBox="0 0 18 18" fill="none" xmlns="http://www.w3.org/2000/svg">
<path d="M1 18C0.716667 18 0.479333 17.856 0.288 17.568C0.0960001 17.281 0 16.925 0 16.5C0 16.075 0.0960001 15.719 0.288 15.432C0.479333 15.144 0.716667 15 1 15H17C17.2833 15 17.5207 15.144 17.712 15.432C17.904 15.719 18 16.075 18 16.5C18 16.925 17.904 17.281 17.712 17.568C17.5207 17.856 17.2833 18 17 18H1ZM1 10.5C0.716667 10.5 0.479333 10.356 0.288 10.068C0.0960001 9.781 0 9.425 0 9C0 8.575 0.0960001 8.2185 0.288 7.9305C0.479333 7.6435 0.716667 7.5 1 7.5H17C17.2833 7.5 17.5207 7.6435 17.712 7.9305C17.904 8.2185 18 8.575 18 9C18 9.425 17.904 9.781 17.712 10.068C17.5207 10.356 17.2833 10.5 17 10.5H1ZM1 3C0.716667 3 0.479333 2.8565 0.288 2.5695C0.0960001 2.2815 0 1.925 0 1.5C0 1.075 0.0960001 0.7185 0.288 0.4305C0.479333 0.1435 0.716667 0 1 0H17C17.2833 0 17.5207 0.1435 17.712 0.4305C17.904 0.7185 18 1.075 18 1.5C18 1.925 17.904 2.2815 17.712 2.5695C17.5207 2.8565 17.2833 3 17 3H1Z" fill="white"/>
</svg>
