<svg width="89" height="77" viewBox="0 0 89 77" fill="none" xmlns="http://www.w3.org/2000/svg">
<path fill-rule="evenodd" clip-rule="evenodd" d="M29.3604 1.13406C30.7086 0.70043 32.166 0.70043 33.5142 1.13406L57.7273 8.92816L80.9019 1.46834C81.7581 1.19283 82.6697 1.11768 83.5618 1.2491C84.4539 1.38052 85.3009 1.71474 86.033 2.22423C86.7651 2.73371 87.3614 3.40388 87.7728 4.17953C88.1841 4.95518 88.3987 5.81411 88.399 6.68556V62.6406C88.3988 63.9729 87.9646 65.2713 87.1577 66.352C86.3509 67.4327 85.2123 68.2407 83.9034 68.6617L59.8042 76.4178C58.4547 76.8536 56.9999 76.8536 55.6504 76.4178L31.4373 68.6237L8.26266 76.0835C7.40653 76.359 6.49487 76.4341 5.60278 76.3027C4.71069 76.1713 3.86369 75.8371 3.13157 75.3276C2.39945 74.8181 1.80316 74.1479 1.39182 73.3723C0.980472 72.5966 0.765847 71.7377 0.765625 70.8663V14.9113C0.765753 13.579 1.20001 12.2805 2.00687 11.1998C2.81374 10.1192 3.95229 9.31108 5.26122 8.89008L29.3604 1.13406ZM27.0556 61.1173V10.7942L9.52896 16.4388V66.7577L27.0556 61.1131V61.1173ZM35.819 10.7984V61.1173L53.3456 66.7619V16.4345L35.819 10.7899V10.7984ZM62.109 16.443V66.7619L79.6356 61.1173V10.7942L62.109 16.443Z" fill="#18C29C"/>
</svg>
