<svg version="1.1" id="Layer_1" xmlns="http://www.w3.org/2000/svg" xmlns:xlink="http://www.w3.org/1999/xlink" x="0px" y="0px"
	 width="100%" viewBox="0 0 360 240" enable-background="new 0 0 360 240" xml:space="preserve">
<path fill="#FFFFFF" opacity="1.000000" stroke="none" 
	d="
M1.000000,81.000000 
	C1.000000,54.355782 1.000000,27.711563 1.000000,1.033672 
	C120.876526,1.033672 240.753067,1.033672 361.000000,1.033672 
	C361.000000,27.353071 361.000000,53.707878 360.742920,80.526154 
	C360.325226,81.049515 360.164581,81.109406 359.540039,81.097137 
	C241.045807,81.018059 123.015511,81.010727 4.985215,81.011032 
	C3.990150,81.011040 2.995086,81.114265 1.758060,81.079460 
	C1.344065,80.993080 1.172033,80.996544 1.000000,81.000000 
z"/>
<path fill="#D52B1E" opacity="1.000000" stroke="none" 
	d="
M361.000000,161.000000 
	C361.000000,187.644226 361.000000,214.288437 361.000000,240.966339 
	C241.123474,240.966339 121.246933,240.966339 1.000000,240.966339 
	C1.000000,214.646927 1.000000,188.292130 1.257095,161.449463 
	C1.675911,160.903397 1.837632,160.845200 2.464450,160.846741 
	C120.955994,160.915482 238.982437,160.924835 357.008881,160.927399 
	C358.005035,160.927429 359.001221,160.835815 360.240784,160.874298 
	C360.656158,160.974411 360.828094,160.987198 361.000000,161.000000 
z"/>
<path fill="#0038A5" opacity="1.000000" stroke="none" 
	d="
M359.997375,160.786987 
	C359.001221,160.835815 358.005035,160.927429 357.008881,160.927399 
	C238.982437,160.924835 120.955994,160.915482 2.343680,160.663849 
	C1.547287,160.205124 1.294683,160.064713 1.000000,160.000000 
	C1.000000,134.312439 1.000000,108.624878 1.206952,82.382927 
	C1.686024,81.677025 1.881397,81.457283 2.000022,81.169296 
	C2.995086,81.114265 3.990150,81.011040 4.985215,81.011032 
	C123.015511,81.010727 241.045807,81.018059 359.656677,81.287811 
	C360.449371,81.771881 360.703644,81.921669 361.000000,82.000000 
	C361.000000,107.687561 361.000000,133.375122 360.794250,159.608292 
	C360.321350,160.299454 360.124298,160.510483 359.997375,160.786987 
z"/>
<path fill="#1548B1" opacity="1.000000" stroke="none" 
	d="
M1.758060,81.079460 
	C1.881397,81.457283 1.686024,81.677025 1.206952,81.914268 
	C1.000000,82.000000 1.000000,81.500000 1.000000,81.250000 
	C1.172033,80.996544 1.344065,80.993080 1.758060,81.079460 
z"/>
<path fill="#1548B1" opacity="1.000000" stroke="none" 
	d="
M361.000000,81.750000 
	C360.703644,81.921669 360.449371,81.771881 360.120605,81.359962 
	C360.164581,81.109406 360.325226,81.049515 360.742920,80.994812 
	C361.000000,81.000000 361.000000,81.500000 361.000000,81.750000 
z"/>
<path fill="#1E3696" opacity="1.000000" stroke="none" 
	d="
M1.000000,160.250000 
	C1.294683,160.064713 1.547287,160.205124 1.878583,160.604111 
	C1.837632,160.845200 1.675911,160.903397 1.257095,160.980804 
	C1.000000,161.000000 1.000000,160.500000 1.000000,160.250000 
z"/>
<path fill="#1E3696" opacity="1.000000" stroke="none" 
	d="
M360.240784,160.874298 
	C360.124298,160.510483 360.321350,160.299454 360.794250,160.076950 
	C361.000000,160.000000 361.000000,160.500000 361.000000,160.750000 
	C360.828094,160.987198 360.656158,160.974411 360.240784,160.874298 
z"/>
</svg>