<svg width="1055" height="1098" viewBox="0 0 1055 1098" fill="none" xmlns="http://www.w3.org/2000/svg">
<path fill-rule="evenodd" clip-rule="evenodd" d="M43.282 1.51549C24.814 5.99249 9.443 20.3985 2.791 39.4625L0 47.4625V456.962C0 851.094 0.0689996 866.706 1.834 872.962C7.214 892.028 21.384 906.711 40 912.511L48 915.003L213.095 914.733L378.191 914.462L371.31 902.962C367.526 896.637 360.877 884.262 356.535 875.462C329.409 820.486 315.759 765.93 312.938 701.212L312.274 685.962H285.719C270.724 685.962 256.383 686.446 252.777 687.074C241.218 689.087 231.984 697.816 229.586 708.995C228.862 712.375 228.5 738.006 228.5 786.011V857.962H143H57.5V457.462V56.9625H343.5H629.5V215.962V374.962H658H686.5V212.622C686.5 54.1535 686.453 50.0975 684.522 42.5475C681.75 31.7095 678.201 25.6345 669.52 16.8675C664.196 11.4895 660.081 8.36049 655.427 6.15049C641.312 -0.552505 667.212 -0.0465089 343.04 0.0454911C96.014 0.115491 48.086 0.350492 43.282 1.51549ZM136.046 115.059C126.9 117.272 117.895 126.067 115.439 135.188C114.79 137.598 114.515 151.985 114.702 173.747C114.992 207.576 115.058 208.57 117.257 212.685C120.32 218.418 125.88 223.782 131.411 226.34C135.816 228.378 137.424 228.462 171.5 228.462H207L212.724 225.651C215.873 224.105 220.011 221.015 221.92 218.784C228.233 211.409 228.5 209.497 228.5 171.65C228.5 149.307 228.114 136.405 227.37 133.924C225.47 127.581 219.586 120.827 213.045 117.48L207.148 114.462L173.574 114.283C154.928 114.183 138.242 114.528 136.046 115.059ZM307.303 115.331C298.157 117.852 291.253 124.13 287.839 133.031C286.42 136.731 286.072 142.275 285.731 166.633C285.157 207.574 286.584 214.467 297.338 222.669C305.257 228.709 308.526 229.121 345.717 228.773C378.597 228.466 379.059 228.433 383.915 226.043C390.624 222.741 396.002 216.909 398.504 210.223C400.501 204.885 400.582 203.082 400.298 170.047C400.015 137.261 399.89 135.228 397.886 130.962C395.232 125.315 389.664 119.767 383.643 116.772C379.1 114.512 378.278 114.457 345.5 114.249C320.6 114.091 310.794 114.369 307.303 115.331ZM479 115.336C470.069 118.216 464.661 122.75 460.358 130.962C458.008 135.447 458 135.58 458 171.462C458 203.838 458.178 207.842 459.773 211.234C462.384 216.791 468.189 222.756 473.937 225.79L479 228.462H515H551L556.063 225.79C562.445 222.422 567.673 216.68 570.109 210.366C571.832 205.896 572 202.406 572 170.962C572 137.832 571.915 136.28 569.863 131.84C566.803 125.223 561.294 119.567 555.242 116.832C550.097 114.506 549.379 114.459 516.5 114.255C491.392 114.099 481.998 114.369 479 115.336ZM135.494 286.896C127.713 289.263 121.346 294.433 117.701 301.342L115 306.462L114.701 341.309C114.444 371.296 114.628 376.834 116.022 381.029C118.196 387.574 125.14 395.131 131.489 397.862C136.406 399.977 137.473 400.027 172.768 399.749C205.524 399.49 209.353 399.287 212.679 397.633C218.135 394.919 223.468 389.273 226.186 383.336L228.594 378.078L228.297 341.771L228 305.462L225.257 300.797C221.61 294.593 215.639 289.634 209.381 287.613C205.027 286.206 199.364 285.975 171.135 286.048C152.911 286.095 136.872 286.477 135.494 286.896ZM305.36 287.507C299.062 289.478 291.368 296.585 288.386 303.184C286.024 308.41 286 308.798 286 341.962C286 378.949 286.293 381.255 291.987 389.098C294.36 392.366 297.191 394.652 301.586 396.848L307.819 399.962H343.463H379.107L384.293 397.378C387.144 395.957 391.291 392.734 393.508 390.215C400.31 382.488 400.642 380.079 400.299 340.788C400.01 307.621 399.926 306.323 397.798 302.346C394.414 296.02 391.158 292.644 385.333 289.417L380 286.462L345 286.258C316.753 286.093 309.105 286.334 305.36 287.507ZM475.829 288.055C469.505 290.486 463.031 296.578 460.152 302.806C458.108 307.229 457.985 309.128 457.7 340.784C457.364 378.001 457.771 381.229 463.793 389.124C465.595 391.486 469.267 394.779 471.954 396.441C476.636 399.337 477.381 399.477 489.919 399.792L503 400.12L514.683 395.538C528.246 390.218 545.822 385.007 560.836 381.857L571.396 379.641L572.023 374.551C572.368 371.752 572.504 355.512 572.325 338.462C572.01 308.42 571.929 307.317 569.687 302.767C566.401 296.095 560.319 290.413 553.889 288.007C548.771 286.092 546.293 285.965 514.712 286.014C483.539 286.062 480.611 286.216 475.829 288.055ZM133.248 459.389C125.619 462.111 118.79 469.056 116.02 476.906C113.822 483.134 113.788 545.201 115.977 552.574C117.869 558.942 123.331 565.307 129.862 568.752L135 571.462L169.846 571.761C208.902 572.095 210.767 571.849 218.366 565.344C220.648 563.392 223.748 559.694 225.257 557.128L228 552.462L228.297 516.154L228.594 479.846L226.214 474.648C223.225 468.119 218.477 463.326 212.021 460.32C207.054 458.007 206.624 457.983 172 458.017C145.366 458.043 136.103 458.37 133.248 459.389ZM303.744 459.913C296.386 463.295 292.682 466.848 289.257 473.804L286 480.421V514.941C286 549.181 286.019 549.505 288.386 554.741C291.32 561.235 298.801 568.195 305.184 570.37C308.487 571.496 313.54 571.96 322.428 571.956L335 571.95L340.26 560.164C352.768 532.142 370.66 504.424 391.159 481.312C394.646 477.38 397.5 473.75 397.5 473.243C397.5 471.322 390.141 463.835 385.666 461.205L381 458.462L344.5 458.21C310.086 457.972 307.757 458.069 303.744 459.913ZM622 464.543C620.35 464.765 614.95 465.44 610 466.043C554.473 472.816 504.059 498.433 463.8 540.334C438.433 566.734 420.954 595.218 410.143 627.77C401.206 654.681 397.957 678.424 398.782 710.795C399.366 733.731 400.971 745.901 405.992 765.462C416.242 805.398 435.261 837.742 467.474 870.018C501.658 904.269 537.768 924.933 582.703 935.958C605.605 941.577 614.284 942.46 646.5 942.452C678.073 942.443 686.301 941.657 710.5 936.333C734.612 931.03 759.476 920.608 780.099 907.163L789.198 901.231L890.95 999.646C946.913 1053.78 993.081 1097.93 993.546 1097.76C994.345 1097.48 1054.5 1039.81 1054.5 1039.33C1054.5 1039.2 1008.59 994.689 952.475 940.409L850.45 841.716L853.009 838.362C868.718 817.765 881.175 790.888 886.906 765.226C892.547 739.963 893.804 728.618 893.804 702.962C893.803 637.485 871.91 584.314 825.722 537.609C786.774 498.226 741.322 474.985 686.5 466.419C676.549 464.864 629.729 463.503 622 464.543ZM658.895 548.981C683.48 550.754 701.472 555.404 721 565.031C761.145 584.822 790.762 620.648 801.456 662.353C808.568 690.088 808.035 722.382 800.003 750.475C796.651 762.201 787.327 781.156 779.351 792.462C771.545 803.527 753.702 821.479 742.761 829.274C702.001 858.316 644.741 866.556 593 850.828C567.299 843.015 542.676 826.906 523.149 805.128C495.815 774.644 482.68 733.559 486.411 690.212C488.915 661.124 496.062 640.016 511.177 617.065C518.613 605.774 540.948 583.464 552.5 575.787C576.038 560.147 602.588 551.096 630.942 549.047C637.024 548.607 642.675 548.187 643.5 548.114C644.325 548.04 651.253 548.43 658.895 548.981Z" fill="white"/>
</svg>
