<svg width="25" height="23" viewBox="0 0 25 23" fill="none" xmlns="http://www.w3.org/2000/svg">
<path d="M9.78659 8.84615C8.5061 8.84615 7.4187 8.41368 6.52439 7.54872C5.63008 6.68376 5.18293 5.64188 5.18293 4.42308C5.18293 3.18462 5.63008 2.13782 6.52439 1.28269C7.4187 0.427564 8.49594 0 9.7561 0C11.0366 0 12.1189 0.427564 13.003 1.28269C13.8872 2.13782 14.3293 3.17479 14.3293 4.39359C14.3293 5.63205 13.8872 6.68376 13.003 7.54872C12.1189 8.41368 11.0467 8.84615 9.78659 8.84615ZM9.7561 7.07692C10.5285 7.07692 11.1789 6.81645 11.7073 6.29551C12.2358 5.77457 12.5 5.15043 12.5 4.42308C12.5 3.67607 12.2358 3.04701 11.7073 2.5359C11.1789 2.02479 10.5386 1.76923 9.78659 1.76923C9.01423 1.76923 8.35874 2.02479 7.82012 2.5359C7.2815 3.04701 7.0122 3.66624 7.0122 4.39359C7.0122 5.1406 7.2815 5.77457 7.82012 6.29551C8.35874 6.81645 9.00407 7.07692 9.7561 7.07692ZM23.7195 23L19.4512 18.8718C18.9837 19.206 18.501 19.437 18.0031 19.5647C17.5051 19.6925 16.9919 19.7564 16.4634 19.7564C15.0203 19.7564 13.7957 19.2699 12.7896 18.2968C11.7835 17.3237 11.2805 16.1393 11.2805 14.7436C11.2805 13.3479 11.7835 12.1635 12.7896 11.1904C13.7957 10.2173 15.0203 9.73077 16.4634 9.73077C17.9065 9.73077 19.1311 10.2173 20.1372 11.1904C21.1433 12.1635 21.6463 13.3479 21.6463 14.7436C21.6463 15.2547 21.5803 15.7511 21.4482 16.2327C21.3161 16.7143 21.0772 17.1812 20.7317 17.6333L25 21.7615L23.7195 23ZM16.4634 17.9872C17.4187 17.9872 18.2165 17.6776 18.8567 17.0583C19.497 16.4391 19.8171 15.6675 19.8171 14.7436C19.8171 13.8197 19.497 13.0481 18.8567 12.4288C18.2165 11.8096 17.4187 11.5 16.4634 11.5C15.5081 11.5 14.7104 11.8096 14.0701 12.4288C13.4299 13.0481 13.1098 13.8197 13.1098 14.7436C13.1098 15.6675 13.4299 16.4391 14.0701 17.0583C14.7104 17.6776 15.5081 17.9872 16.4634 17.9872ZM0 18.8718V16.1C0 15.3726 0.177846 14.7534 0.533537 14.2423C0.889228 13.7312 1.40244 13.3085 2.07317 12.9744C3.02846 12.5222 4.27337 12.0947 5.80793 11.6917C7.34248 11.2887 8.90244 11.1363 10.4878 11.2346C10.3252 11.4902 10.1728 11.7703 10.0305 12.075C9.88821 12.3797 9.77642 12.6795 9.69512 12.9744C8.10976 12.9547 6.72764 13.1365 5.54878 13.5199C4.36992 13.9032 3.45528 14.2521 2.80488 14.5667C2.52033 14.7239 2.28659 14.9353 2.10366 15.2006C1.92073 15.466 1.82927 15.7658 1.82927 16.1V17.1026H9.69512C9.9187 17.4368 10.122 17.7464 10.3049 18.0314C10.4878 18.3165 10.6911 18.5966 10.9146 18.8718H0Z" fill="#232426"/>
</svg>
