<svg width="74" height="74" viewBox="0 0 74 74" fill="none" xmlns="http://www.w3.org/2000/svg">
<path d="M25.9 47.7929V49.95C25.9 54.3659 27.6542 58.6008 30.7767 61.7233C33.8992 64.8458 38.1341 66.6 42.55 66.6C46.9659 66.6 51.2008 64.8458 54.3233 61.7233C57.4458 58.6008 59.2 54.3659 59.2 49.95V43.771C56.7303 42.8981 54.6486 41.1803 53.3231 38.921C51.9975 36.6618 51.5133 34.0066 51.9561 31.4249C52.3989 28.8432 53.7402 26.5011 55.7428 24.8127C57.7455 23.1242 60.2806 22.1982 62.9 22.1982C65.5194 22.1982 68.0545 23.1242 70.0572 24.8127C72.0598 26.5011 73.4011 28.8432 73.8439 31.4249C74.2867 34.0066 73.8025 36.6618 72.4769 38.921C71.1513 41.1803 69.0697 42.8981 66.6 43.771V49.95C66.6 56.3285 64.0662 62.4457 59.5559 66.9559C55.0457 71.4662 48.9285 74 42.55 74C36.1715 74 30.0543 71.4662 25.5441 66.9559C21.0338 62.4457 18.5 56.3285 18.5 49.95V47.7929C13.3271 46.917 8.63141 44.238 5.24512 40.2307C1.85883 36.2233 0.000672952 31.1465 0 25.9L0 7.4C0 5.4374 0.779641 3.55518 2.16741 2.16741C3.55518 0.779641 5.4374 0 7.4 0L11.1 0C12.0813 0 13.0224 0.38982 13.7163 1.0837C14.4102 1.77759 14.8 2.7187 14.8 3.7C14.8 4.6813 14.4102 5.62241 13.7163 6.3163C13.0224 7.01018 12.0813 7.4 11.1 7.4H7.4V25.9C7.4 29.8252 8.95928 33.5896 11.7348 36.3652C14.5104 39.1407 18.2748 40.7 22.2 40.7C26.1252 40.7 29.8896 39.1407 32.6652 36.3652C35.4407 33.5896 37 29.8252 37 25.9V7.4H33.3C32.3187 7.4 31.3776 7.01018 30.6837 6.3163C29.9898 5.62241 29.6 4.6813 29.6 3.7C29.6 2.7187 29.9898 1.77759 30.6837 1.0837C31.3776 0.38982 32.3187 0 33.3 0L37 0C38.9626 0 40.8448 0.779641 42.2326 2.16741C43.6204 3.55518 44.4 5.4374 44.4 7.4V25.9C44.3993 31.1465 42.5412 36.2233 39.1549 40.2307C35.7686 44.238 31.0729 46.917 25.9 47.7929ZM62.9 37C63.8813 37 64.8224 36.6102 65.5163 35.9163C66.2102 35.2224 66.6 34.2813 66.6 33.3C66.6 32.3187 66.2102 31.3776 65.5163 30.6837C64.8224 29.9898 63.8813 29.6 62.9 29.6C61.9187 29.6 60.9776 29.9898 60.2837 30.6837C59.5898 31.3776 59.2 32.3187 59.2 33.3C59.2 34.2813 59.5898 35.2224 60.2837 35.9163C60.9776 36.6102 61.9187 37 62.9 37Z" fill="#18C29C"/>
</svg>
