<svg width="245" height="170" viewBox="0 0 245 170" fill="none" xmlns="http://www.w3.org/2000/svg">
<g clip-path="url(#clip0_137_640)">
<path d="M92.2101 33.1906C90.3466 26.3859 105.377 20.5507 109.323 26.0305C109.872 25.2515 111.901 24.7783 112.831 25.0172C113.762 25.2562 114.544 25.8537 115.308 26.4321C116.358 27.2398 117.446 28.0763 118.09 29.2377C118.739 30.3944 118.839 31.9718 117.966 32.9755C117.274 33.7737 115.232 34.2899 114.191 34.5002C113.466 34.6484 112.855 34.7679 112.33 34.8539C111.862 34.1704 111.624 33.3244 111.71 32.4975C111.003 32.9659 110.526 33.7689 110.45 34.6197C110.435 34.7966 116.315 56.463 116.315 56.463C115.709 56.8215 114.96 57.1561 114.096 57.4619C112.631 55.2489 111.428 52.6392 110.636 49.91C110.455 51.5972 110.483 53.4279 110.703 55.2872C110.817 56.2766 110.989 57.2708 111.209 58.2649C104.222 59.7753 93.7134 59.2782 89.1415 52.8543C89.1407 52.8277 89.1399 52.8011 89.1392 52.7745C89.1065 51.5725 87.469 51.2738 87.0308 52.3933C86.9199 52.6767 86.8178 52.9221 86.7267 53.1172C85.3953 48.347 87.1181 42.8265 92.2101 33.1906V33.1906Z" fill="#2F2E41"/>
<path d="M187.178 87.1513C185.525 89.115 182.596 89.3648 180.635 87.7091C180.445 87.5487 180.268 87.3734 180.107 87.1846L158.043 94.1838L154.609 88.5474L180.876 80.4263C182.936 78.9035 185.839 79.3422 187.36 81.4062C188.632 83.1332 188.557 85.5083 187.178 87.1513H187.178Z" fill="#FFB6B6"/>
<path d="M109.04 69.6614C109.04 69.6614 118.811 58.6542 123.067 63.3299C127.323 68.0056 140.602 88.495 140.602 88.495L171.599 81.9451L174.597 90.1382L139.401 101.561C136.755 102.42 133.856 101.529 132.145 99.3329L109.04 69.6614V69.6614Z" fill="#6C63FF"/>
<path d="M130.262 170H81.7986L81.7545 169.621L81.7261 169.368L81.3099 165.832L80.7203 160.795L80.4933 158.859C80.4775 158.761 80.4618 158.667 80.4492 158.569C80.2505 157.309 80.137 156.043 80.096 154.779C80.0361 153.043 80.1149 151.309 80.301 149.597V149.588C80.4018 148.663 80.5311 147.747 80.6919 146.841C80.8937 145.675 81.1365 144.529 81.4171 143.408C81.7387 142.107 82.1044 140.841 82.5048 139.619C82.9652 138.188 83.4696 136.818 83.9898 135.523C84.0466 135.384 84.1034 135.245 84.157 135.109L84.1601 135.106C86.9031 128.409 90.0182 123.833 90.0182 123.833H125.324C125.324 123.833 126.957 131.011 127.768 136.938C127.897 137.876 128.004 138.779 128.083 139.619C128.225 141.169 128.266 142.502 128.143 143.408C128.067 143.97 127.929 144.368 127.714 144.551C125.772 146.212 127.995 149.736 127.995 149.736C127.995 149.736 129.659 152.285 128.209 153.718C127.922 154.003 127.758 154.369 127.679 154.779C127.553 155.458 127.664 156.248 127.837 156.946C128.01 157.647 128.25 158.256 128.383 158.569C128.442 158.708 128.48 158.787 128.48 158.787L128.726 160.735L128.966 162.611L129.373 165.832L129.495 166.4L130.129 169.368L130.183 169.621L130.262 170H130.262Z" fill="#2F2E41"/>
<path d="M105.782 54.6022L90.9642 55.924L88.2331 64.4361L85.2568 64.8677C80.1708 65.6052 77.1439 70.9477 79.12 75.6989L81.7388 81.9952C81.7388 81.9952 77.8922 93.8868 82.6165 98.8833L84.6269 120.889L80.0919 135.397L133.102 137.11L124.073 118.914L123.805 107.615C123.805 107.615 129.575 87.193 124.226 80.6972L122.138 62.2211L111.264 60.5874L105.782 54.6022H105.782Z" fill="#6C63FF"/>
<path d="M115.814 43.6817C117.341 37.0856 113.24 30.4986 106.654 28.9693C100.068 27.44 93.4912 31.5475 91.9643 38.1436C90.4373 44.7398 94.5385 51.3268 101.124 52.8561C107.71 54.3854 114.287 50.2779 115.814 43.6817Z" fill="#FFB6B6"/>
<path d="M85.5289 34.1465C83.6654 27.3418 98.6954 21.5067 102.642 26.9865C103.191 26.2074 105.219 25.7342 106.15 25.9732C107.081 26.2122 107.863 26.8097 108.627 27.388C109.677 28.1958 110.765 29.0322 111.409 30.1937C112.058 31.3504 112.158 32.9277 111.285 33.9314C110.593 34.7296 108.55 35.2459 107.51 35.4562C106.785 35.6043 106.174 35.7238 105.649 35.8099C105.181 35.1264 104.943 34.2804 105.028 33.4535C104.322 33.9219 103.845 34.7249 103.769 35.5757C103.754 35.7525 109.634 57.419 109.634 57.419C109.028 57.7774 108.278 58.112 107.415 58.4179C105.949 56.2049 104.747 53.5952 103.955 50.866C103.773 52.5532 103.802 54.3838 104.021 56.2431C104.136 57.2325 104.308 58.2267 104.527 59.2209C97.5407 60.7313 87.0321 60.2342 82.4603 53.8103C82.4595 53.7837 82.4587 53.7571 82.458 53.7305C82.4253 52.5285 80.7878 52.2298 80.3496 53.3493C80.2387 53.6327 80.1366 53.878 80.0455 54.0732C78.7141 49.303 80.4369 43.7824 85.5289 34.1465L85.5289 34.1465Z" fill="#2F2E41"/>
<path d="M190.17 169.621H25.5888L0.0504456 169.937L179.154 159.227C185.129 158.87 190.17 163.627 190.17 169.621V169.621Z" fill="#3F3D56"/>
<path d="M230.476 169.368V170H0V0H0.630578V169.368H230.476Z" fill="#3F3D56"/>
<path d="M205.815 39.3207H163.865C162.898 39.3207 162.111 38.5352 162.111 37.5699C162.111 36.6045 162.898 35.8194 163.865 35.8194H205.815C206.782 35.8194 207.569 36.6045 207.569 37.5699C207.569 38.5352 206.782 39.3207 205.815 39.3207Z" fill="#6C63FF"/>
<path d="M184.824 44.9669C184.667 44.5799 184.126 44.58 183.969 44.967C182.876 47.6676 181.318 50.6918 179.625 53.0031C179.353 53.3731 179.727 53.8675 180.158 53.7114L183.789 52.3959V74.9059H185.004V52.3958L188.636 53.7116C189.067 53.8677 189.441 53.3732 189.17 53.0032C187.476 50.692 185.919 47.6676 184.824 44.9669Z" fill="#3F3D56"/>
<path d="M243.601 52.1881H217.737C217.141 52.1881 216.656 51.7038 216.656 51.1087C216.656 50.5135 217.141 50.0295 217.737 50.0295H243.601C244.197 50.0295 244.682 50.5135 244.682 51.1087C244.682 51.7038 244.197 52.1881 243.601 52.1881Z" fill="#F2F2F2"/>
<path d="M230.659 55.6692C230.563 55.4306 230.229 55.4306 230.132 55.6692C229.458 57.3342 228.498 59.1987 227.454 60.6237C227.286 60.8518 227.517 61.1566 227.783 61.0604L230.021 60.2493V74.1273H230.77V60.2493L233.01 61.0605C233.275 61.1567 233.506 60.8519 233.338 60.6237C232.294 59.1988 231.334 57.3342 230.659 55.6692Z" fill="#F2F2F2"/>
<path d="M230.673 87.5183C233.777 87.5183 236.293 84.9983 236.293 81.8897C236.293 78.781 233.777 76.261 230.673 76.261C227.569 76.261 225.053 78.781 225.053 81.8897C225.053 84.9983 227.569 87.5183 230.673 87.5183Z" fill="#F2F2F2"/>
<path d="M160.68 20.2943H134.816C134.22 20.2943 133.735 19.8101 133.735 19.2149C133.735 18.6198 134.22 18.1357 134.816 18.1357H160.68C161.276 18.1357 161.761 18.6198 161.761 19.2149C161.761 19.8101 161.276 20.2943 160.68 20.2943Z" fill="#F2F2F2"/>
<path d="M147.738 23.7754C147.642 23.5368 147.308 23.5369 147.211 23.7755C146.537 25.4404 145.577 27.305 144.533 28.7299C144.365 28.958 144.596 29.2629 144.862 29.1666L147.1 28.3556V42.2336H147.849V28.3555L150.089 29.1667C150.354 29.263 150.585 28.9581 150.417 28.73C149.373 27.3051 148.413 25.4404 147.738 23.7754H147.738Z" fill="#F2F2F2"/>
<path d="M147.752 55.6246C150.856 55.6246 153.372 53.1046 153.372 49.9959C153.372 46.8873 150.856 44.3672 147.752 44.3672C144.648 44.3672 142.132 46.8873 142.132 49.9959C142.132 53.1046 144.648 55.6246 147.752 55.6246Z" fill="#F2F2F2"/>
<path d="M82.5956 159.061C83.9217 156.862 83.2174 154.003 81.0224 152.675C80.8097 152.547 80.5871 152.435 80.3567 152.342L79.8913 129.167L73.4592 127.72L74.213 155.241C73.4347 157.685 74.7816 160.298 77.2213 161.077C79.2628 161.73 81.4846 160.896 82.5956 159.061Z" fill="#FFB6B6"/>
<path d="M87.0702 67.6242C87.0702 67.6242 79.188 65.7295 76.6657 71.0978C74.1433 76.4661 73.9287 99.8263 73.9287 99.8263L72.5669 147.201L82.5652 146.759L90.5384 88.4657L87.0702 67.6242Z" fill="#6C63FF"/>
<path d="M83.5323 166.051C83.7097 166.274 83.9792 166.403 84.2637 166.402H135.448C135.968 166.401 136.389 165.978 136.388 165.457C136.388 165.393 136.382 165.328 136.368 165.265L135.574 161.485C135.507 161.172 135.286 160.914 134.987 160.8C134.881 160.758 134.768 160.736 134.653 160.737H85.0551C84.9407 160.736 84.8274 160.758 84.7209 160.8C84.4221 160.914 84.2014 161.172 84.1345 161.485L83.3399 165.265C83.2827 165.543 83.3533 165.831 83.5323 166.051Z" fill="#CCCCCC"/>
<path d="M63.937 81.4347V140.568C63.9383 142.137 65.208 143.408 66.7746 143.41H154.267C155.834 143.408 157.104 142.137 157.105 140.568V81.4347C157.101 79.8672 155.832 78.5979 154.267 78.5959H66.7746C65.2095 78.5979 63.9408 79.8672 63.937 81.4347Z" fill="#E6E6E6"/>
<path d="M121.462 130.764C121.358 130.73 121.248 130.714 121.137 130.714H100.669C100.066 130.714 99.5745 131.203 99.5745 131.806V164.193H122.228V131.806C122.228 131.33 121.919 130.906 121.462 130.764ZM113.252 146.692C113.245 148.031 112.158 149.111 110.821 149.105C109.494 149.095 108.422 148.022 108.415 146.692V142.934C108.428 141.599 109.522 140.525 110.856 140.538C112.173 140.55 113.239 141.618 113.252 142.934V146.692Z" fill="#CCCCCC"/>
</g>
<defs>
<clipPath id="clip0_137_640">
<rect width="244.682" height="170" fill="white"/>
</clipPath>
</defs>
</svg>
