<svg width="98" height="60" viewBox="0 0 98 60" fill="none" xmlns="http://www.w3.org/2000/svg">
<g clip-path="url(#clip0_137_714)">
<path d="M91.5066 54.181C91.0414 54.3448 90.5419 54.3858 90.0562 54.3002C89.5705 54.2145 89.1151 54.0049 88.7337 53.6918C87.7625 52.8752 87.4579 51.5304 87.2102 50.2849L86.4774 46.6007L88.0116 47.6589C89.1151 48.4198 90.2433 49.2052 91.0072 50.3074C91.7711 51.4096 92.1044 52.9143 91.4908 54.107" fill="#E6E6E6"/>
<path d="M91.2698 58.8978C91.4629 57.4886 91.6615 56.0612 91.5258 54.6369C91.4054 53.372 91.0201 52.1367 90.2357 51.1234C89.8194 50.5867 89.3127 50.1269 88.7386 49.7645C88.5889 49.6699 88.4511 49.9075 88.6001 50.0017C89.5936 50.6306 90.362 51.5591 90.7946 52.6536C91.2723 53.8706 91.349 55.1974 91.2667 56.4903C91.217 57.2721 91.1113 58.0488 91.0051 58.8246C90.9968 58.8597 91.002 58.8967 91.0198 58.928C91.0376 58.9594 91.0666 58.9828 91.101 58.9936C91.136 59.003 91.1734 58.9983 91.205 58.9803C91.2366 58.9623 91.2598 58.9326 91.2697 58.8976L91.2698 58.8978Z" fill="#F2F2F2"/>
<path d="M89.8798 56.6367C89.6803 56.9405 89.406 57.1877 89.0834 57.3545C88.7608 57.5214 88.4007 57.6021 88.0379 57.5891C87.1053 57.5448 86.3281 56.8931 85.6285 56.2742L83.5589 54.4439L84.9286 54.3782C85.9136 54.331 86.9241 54.2867 87.8623 54.5913C88.8005 54.8959 89.6657 55.6278 89.8373 56.6005" fill="#E6E6E6"/>
<path d="M91.8156 59.7079C90.8859 58.0603 89.8076 56.2291 87.8807 55.6438C87.345 55.4816 86.7833 55.4235 86.2258 55.4726C86.05 55.4878 86.0939 55.7591 86.2693 55.744C87.2038 55.6662 88.1365 55.9134 88.9104 56.4438C89.6552 56.9516 90.2351 57.6575 90.7258 58.406C91.0264 58.8645 91.2957 59.3425 91.565 59.8198C91.651 59.9724 91.9026 59.8622 91.8156 59.7079Z" fill="#F2F2F2"/>
<path d="M58.6092 17.8766V33.5652H22.4323V41.8954H12.8681V17.8766H58.6092Z" fill="white"/>
<path d="M12.4518 17.4608V42.3122H22.4323V41.4796H13.2832V18.2935H58.1941V33.5652H59.0254V17.4608H12.4518Z" fill="#E5E5E5"/>
<path d="M51.4499 26.7671H22.4554V27.7923H51.4499V26.7671Z" fill="#E5E5E5"/>
<path d="M51.4499 29.4326H22.4554V30.4578H51.4499V29.4326Z" fill="#E5E5E5"/>
<path d="M51.4499 32.098H22.4554V33.1232H51.4499V32.098Z" fill="#E5E5E5"/>
<path d="M20.6954 27.9874C21.0644 27.9874 21.3634 27.6879 21.3634 27.3183C21.3634 26.9488 21.0644 26.6493 20.6954 26.6493C20.3265 26.6493 20.0275 26.9488 20.0275 27.3183C20.0275 27.6879 20.3265 27.9874 20.6954 27.9874Z" fill="#E5E5E5"/>
<path d="M46.1573 0.415771V16.1044H9.98048V24.4345H0.41626V0.415771H46.1573Z" fill="white"/>
<path d="M0 0V24.8514H9.98049V24.0188H0.83131V0.832658H45.7422V16.1044H46.5735V0H0Z" fill="#F1F1F1"/>
<path d="M38.998 9.30627H10.0035V10.3315H38.998V9.30627Z" fill="#F1F1F1"/>
<path d="M38.998 11.9717H10.0035V12.9969H38.998V11.9717Z" fill="#F1F1F1"/>
<path d="M38.998 14.6372H10.0035V15.6624H38.998V14.6372Z" fill="#F1F1F1"/>
<path d="M8.24353 10.5266C8.61245 10.5266 8.91151 10.227 8.91151 9.85753C8.91151 9.48802 8.61245 9.18848 8.24353 9.18848C7.87462 9.18848 7.57556 9.48802 7.57556 9.85753C7.57556 10.227 7.87462 10.5266 8.24353 10.5266Z" fill="#F1F1F1"/>
<path d="M70.6191 35.5648H24.8772V59.5835H70.6191V35.5648Z" fill="white"/>
<path d="M71.035 60H24.4614V35.1483H71.035V60ZM25.293 59.167H70.2033V35.9813H25.293V59.167Z" fill="#CBCBCB"/>
<path d="M63.4092 44.4927H34.4147V45.5179H63.4092V44.4927Z" fill="#6C63FF"/>
<path d="M63.4092 47.1582H34.4147V48.1834H63.4092V47.1582Z" fill="#6C63FF"/>
<path d="M63.4092 49.8236H34.4147V50.8488H63.4092V49.8236Z" fill="#6C63FF"/>
<path d="M32.6547 45.713C33.0236 45.713 33.3226 45.4134 33.3226 45.0439C33.3226 44.6744 33.0236 44.3749 32.6547 44.3749C32.2858 44.3749 31.9867 44.6744 31.9867 45.0439C31.9867 45.4134 32.2858 45.713 32.6547 45.713Z" fill="#6C63FF"/>
<path d="M63.8766 35.1491C63.7756 35.0065 63.7071 34.8435 63.6759 34.6715C63.6447 34.4995 63.6514 34.3227 63.6958 34.1536C63.7401 33.9846 63.821 33.8273 63.9326 33.6929C64.0442 33.5584 64.1838 33.4502 64.3417 33.3757L67.6499 23.0005L69.9539 24.1993L65.9776 34.0208C66.085 34.2948 66.0883 34.5987 65.9869 34.8749C65.8855 35.1512 65.6864 35.3806 65.4274 35.5197C65.1685 35.6588 64.8676 35.6979 64.5817 35.6296C64.2959 35.5613 64.045 35.3903 63.8766 35.1491V35.1491Z" fill="#9F616A"/>
<path d="M66.5793 24.4352C66.5476 24.365 66.5314 24.2888 66.5319 24.2117C66.5323 24.1347 66.5493 24.0586 66.5818 23.9888L67.7149 21.5487C67.8266 21.1707 68.0834 20.8525 68.429 20.6638C68.7747 20.4752 69.1809 20.4315 69.5586 20.5424C69.9363 20.6533 70.2547 20.9097 70.4439 21.2553C70.6332 21.601 70.6779 22.0077 70.5682 22.3864L70.1895 25.0594C70.1787 25.1357 70.1516 25.2087 70.11 25.2736C70.0685 25.3384 70.0135 25.3936 69.9487 25.4352C69.884 25.4768 69.8111 25.504 69.7349 25.5149C69.6588 25.5257 69.5812 25.52 69.5074 25.4981L66.9152 24.7288C66.8414 24.707 66.7732 24.6694 66.7152 24.6188C66.6572 24.5681 66.6109 24.5055 66.5793 24.4352Z" fill="#6C63FF"/>
<path d="M76.1365 24.847L75.9518 27.4386L69.6682 29.6599L69.5758 27.1609L76.1365 24.847Z" fill="#9F616A"/>
<path d="M68.0974 21.0523L70.1303 19.5714L73.4568 18.6459L76.229 19.2012L76.691 23.5512L76.1366 26.3279L68.929 27.9939L68.1898 26.6981C68.1898 26.6981 66.5265 25.0321 67.8201 23.181L68.0974 21.0523Z" fill="#6C63FF"/>
<path d="M67.3582 17.2514V14.8208C67.3582 13.7924 67.766 12.8062 68.492 12.079C69.218 11.3519 70.2026 10.9434 71.2293 10.9434C72.256 10.9434 73.2407 11.3519 73.9667 12.079C74.6926 12.8062 75.1005 13.7924 75.1005 14.8208V17.2514C75.1003 17.3895 75.0455 17.5219 74.948 17.6196C74.8505 17.7172 74.7183 17.7721 74.5805 17.7723H67.8782C67.7403 17.7721 67.6081 17.7172 67.5106 17.6196C67.4131 17.5219 67.3583 17.3895 67.3582 17.2514Z" fill="#2F2E41"/>
<path d="M71.0737 17.7484C72.6412 17.7484 73.9119 16.4756 73.9119 14.9055C73.9119 13.3355 72.6412 12.0627 71.0737 12.0627C69.5062 12.0627 68.2355 13.3355 68.2355 14.9055C68.2355 16.4756 69.5062 17.7484 71.0737 17.7484Z" fill="#9F616A"/>
<path d="M68.1576 14.8945C68.1305 14.8632 68.1104 14.8264 68.0987 14.7866C68.0871 14.7468 68.0841 14.7049 68.09 14.6638L68.4262 12.3189C68.4328 12.2712 68.4513 12.2259 68.4798 12.1871C68.5084 12.1483 68.5461 12.1173 68.5896 12.0968C70.3057 11.2923 72.0459 11.2913 73.762 12.0937C73.8075 12.1153 73.8467 12.1484 73.8756 12.1897C73.9045 12.231 73.9223 12.2792 73.9271 12.3294L74.1515 14.6774C74.1554 14.7175 74.1508 14.7581 74.1381 14.7963C74.1254 14.8346 74.1048 14.8698 74.0777 14.8996C74.0507 14.9295 74.0176 14.9533 73.9808 14.9696C73.944 14.9859 73.9042 14.9944 73.8639 14.9943H73.2947C73.2398 14.9942 73.186 14.9784 73.1397 14.9489C73.0933 14.9193 73.0563 14.8772 73.033 14.8274L72.7873 14.3002C72.7714 14.2661 72.7449 14.238 72.7117 14.2203C72.6785 14.2027 72.6404 14.1962 72.6033 14.2021C72.5661 14.208 72.5319 14.2258 72.5057 14.2528C72.4796 14.2799 72.4629 14.3147 72.4582 14.3521L72.4097 14.7408C72.4009 14.8108 72.3669 14.8751 72.3142 14.9218C72.2614 14.9685 72.1935 14.9943 72.1231 14.9943H68.3759C68.3345 14.9943 68.2936 14.9854 68.2559 14.9682C68.2183 14.951 68.1847 14.9259 68.1576 14.8945Z" fill="#2F2E41"/>
<path d="M80.4782 33.9387C80.3082 33.8992 80.1489 33.8228 80.0116 33.7149C79.8742 33.607 79.7622 33.4703 79.6833 33.3143C79.6044 33.1584 79.5606 32.987 79.555 32.8123C79.5494 32.6375 79.5821 32.4637 79.6509 32.303L75.2497 22.3435L77.7674 21.7084L81.3019 31.6979C81.5638 31.8315 81.7676 32.0566 81.8749 32.3306C81.9821 32.6047 81.9853 32.9086 81.8837 33.1848C81.7822 33.461 81.583 33.6903 81.324 33.8292C81.0649 33.9682 80.764 34.0071 80.4782 33.9387Z" fill="#9F616A"/>
<path d="M75.3997 24.1284C75.3295 24.097 75.2669 24.0507 75.2162 23.9928C75.1654 23.9348 75.1278 23.8666 75.1057 23.7928L74.3362 21.2145C74.1693 20.8575 74.1505 20.4487 74.284 20.0778C74.4175 19.7069 74.6923 19.4042 75.0483 19.236C75.4043 19.0679 75.8124 19.0479 76.183 19.1807C76.5536 19.3134 76.8566 19.5879 77.0255 19.944L78.5136 22.1951C78.5561 22.2593 78.5842 22.332 78.5961 22.4081C78.608 22.4842 78.6034 22.562 78.5826 22.6362C78.5618 22.7104 78.5252 22.7792 78.4754 22.8379C78.4257 22.8967 78.3639 22.944 78.2942 22.9767L75.8455 24.1247C75.7759 24.1574 75.7 24.1747 75.623 24.1753C75.5461 24.176 75.4699 24.16 75.3997 24.1284Z" fill="#6C63FF"/>
<path d="M75.8204 58.2451L74.2185 58.245L73.4564 52.0563L75.8206 52.0564L75.8204 58.2451Z" fill="#9F616A"/>
<path d="M76.2289 59.8005L71.0637 59.8003V59.7349C71.0637 59.2008 71.2755 58.6886 71.6526 58.311C72.0296 57.9334 72.5409 57.7212 73.0741 57.7212H73.0742L76.229 57.7213L76.2289 59.8005Z" fill="#2F2E41"/>
<path d="M74.603 45.1783L73.5109 46.3521L68.4708 42.6915L70.0827 40.9591L74.603 45.1783Z" fill="#9F616A"/>
<path d="M76.0175 45.9392L72.4961 49.7241L72.4484 49.6795C72.0583 49.3154 71.8286 48.8111 71.8098 48.2773C71.791 47.7436 71.9846 47.2243 72.3481 46.8335L72.3481 46.8334L74.4989 44.5217L76.0175 45.9392Z" fill="#2F2E41"/>
<path d="M76.3214 27.4385L76.8337 27.9517C79.3964 30.5185 80.0273 34.0776 79.7195 37.6945C79.6764 38.2308 79.5907 38.7628 79.4632 39.2855C78.5391 42.9877 79.0935 54.8346 77.2454 55.575L76.8758 56.8708L73.272 56.7374L73.3644 55.575C73.3644 55.575 72.5328 53.8165 73.0872 52.7059C73.6417 51.5952 74.8429 43.3579 74.8429 43.3579L74.1961 36.6014L69.391 39.0078C69.391 39.0078 71.886 40.3961 71.7012 41.3217C71.7012 41.3217 73.1796 41.6919 72.81 42.6174L73.3645 43.7281L72.0708 45.7643C72.0708 45.7643 63.3848 40.5812 64.124 37.9897C64.8632 35.3982 69.4835 33.5471 69.4835 33.5471L69.8531 30.7705L69.5344 29.2576L75.9996 26.7683L76.3214 27.4385Z" fill="#2F2E41"/>
<path d="M97.8814 60H45.2278C45.1963 60 45.1662 59.9875 45.1439 59.9652C45.1217 59.9429 45.1092 59.9127 45.1092 59.8812C45.1092 59.8497 45.1217 59.8195 45.1439 59.7972C45.1662 59.775 45.1963 59.7625 45.2278 59.7625H97.8814C97.9129 59.7625 97.943 59.775 97.9653 59.7972C97.9875 59.8195 98 59.8497 98 59.8812C98 59.9127 97.9875 59.9429 97.9653 59.9652C97.943 59.9875 97.9129 60 97.8814 60Z" fill="#CBCBCB"/>
</g>
<defs>
<clipPath id="clip0_137_714">
<rect width="98" height="60" fill="white"/>
</clipPath>
</defs>
</svg>
