<svg width="98" height="60" viewBox="0 0 98 60" fill="none" xmlns="http://www.w3.org/2000/svg">
<g clip-path="url(#clip0_137_669)">
<path d="M91.0398 54.1809C90.5769 54.3447 90.0799 54.3858 89.5967 54.3001C89.1135 54.2144 88.6604 54.0049 88.281 53.6917C87.3147 52.8752 87.0117 51.5304 86.7653 50.2848L86.0362 46.6006L87.5626 47.6588C88.6604 48.4198 89.7829 49.2052 90.5429 50.3074C91.3029 51.4096 91.6345 52.9143 91.024 54.1069" fill="#E6E6E6"/>
<path d="M90.8041 58.8979C90.9962 57.4887 91.1939 56.0613 91.0588 54.637C90.9391 53.372 90.5557 52.1368 89.7753 51.1235C89.3611 50.5868 88.857 50.1269 88.2858 49.7646C88.1369 49.67 87.9998 49.9075 88.1481 50.0018C89.1365 50.6306 89.9009 51.5592 90.3313 52.6537C90.8066 53.8707 90.8829 55.1975 90.8011 56.4903C90.7516 57.2722 90.6464 58.0489 90.5408 58.8247C90.5325 58.8598 90.5377 58.8967 90.5554 58.9281C90.5731 58.9595 90.602 58.9829 90.6362 58.9936C90.671 59.0031 90.7082 58.9983 90.7397 58.9804C90.7711 58.9624 90.7942 58.9327 90.804 58.8977L90.8041 58.8979Z" fill="#F2F2F2"/>
<path d="M89.4212 56.6367C89.2227 56.9405 88.9498 57.1877 88.6289 57.3545C88.3079 57.5214 87.9497 57.6021 87.5887 57.5891C86.6609 57.5448 85.8876 56.8931 85.1916 56.2742L83.1326 54.4439L84.4953 54.3782C85.4753 54.331 86.4806 54.2867 87.414 54.5913C88.3474 54.8959 89.2082 55.6278 89.3789 56.6005" fill="#E6E6E6"/>
<path d="M91.3472 59.7079C90.4222 58.0602 89.3494 56.229 87.4323 55.6437C86.8994 55.4815 86.3405 55.4234 85.7858 55.4725C85.611 55.4877 85.6546 55.759 85.8291 55.7439C86.7589 55.6662 87.6869 55.9133 88.4568 56.4438C89.1978 56.9515 89.7747 57.6574 90.2629 58.4059C90.562 58.8645 90.8299 59.3425 91.0978 59.8198C91.1834 59.9724 91.4338 59.8622 91.3472 59.7079Z" fill="#F2F2F2"/>
<path d="M58.3101 17.8766V33.5652H22.3179V41.8954H12.8025V17.8766H58.3101Z" fill="white"/>
<path d="M12.3883 17.4609V42.3123H22.3179V41.4796H13.2154V18.2935H57.8972V33.5652H58.7243V17.4609H12.3883Z" fill="#E5E5E5"/>
<path d="M51.1874 26.7671H22.3408V27.7923H51.1874V26.7671Z" fill="#E5E5E5"/>
<path d="M51.1874 29.4326H22.3408V30.4577H51.1874V29.4326Z" fill="#E5E5E5"/>
<path d="M51.1874 32.098H22.3408V33.1232H51.1874V32.098Z" fill="#E5E5E5"/>
<path d="M20.5898 27.9875C20.9569 27.9875 21.2544 27.6879 21.2544 27.3184C21.2544 26.9489 20.9569 26.6494 20.5898 26.6494C20.2228 26.6494 19.9253 26.9489 19.9253 27.3184C19.9253 27.6879 20.2228 27.9875 20.5898 27.9875Z" fill="#E5E5E5"/>
<path d="M45.9218 0.41571V16.1043H9.92955V24.4345H0.414124V0.41571H45.9218Z" fill="white"/>
<path d="M0 0V24.8514H9.92956V24.0188H0.827068V0.832658H45.5089V16.1044H46.3359V0H0Z" fill="#F1F1F1"/>
<path d="M38.7991 9.30627H9.95245V10.3315H38.7991V9.30627Z" fill="#F1F1F1"/>
<path d="M38.7991 11.9717H9.95245V12.9969H38.7991V11.9717Z" fill="#F1F1F1"/>
<path d="M38.7991 14.6372H9.95245V15.6624H38.7991V14.6372Z" fill="#F1F1F1"/>
<path d="M8.20149 10.5266C8.56852 10.5266 8.86606 10.227 8.86606 9.85753C8.86606 9.48802 8.56852 9.18848 8.20149 9.18848C7.83446 9.18848 7.53693 9.48802 7.53693 9.85753C7.53693 10.227 7.83446 10.5266 8.20149 10.5266Z" fill="#F1F1F1"/>
<path d="M70.2588 35.5648H24.7503V59.5835H70.2588V35.5648Z" fill="white"/>
<path d="M70.6725 60H24.3365V35.1483H70.6725V60ZM25.164 59.167H69.8451V35.9813H25.164V59.167Z" fill="#CBCBCB"/>
<path d="M63.0857 44.4927H34.239V45.5179H63.0857V44.4927Z" fill="#6C63FF"/>
<path d="M63.0857 47.1581H34.239V48.1833H63.0857V47.1581Z" fill="#6C63FF"/>
<path d="M63.0857 49.8236H34.239V50.8488H63.0857V49.8236Z" fill="#6C63FF"/>
<path d="M32.4881 45.713C32.8551 45.713 33.1526 45.4135 33.1526 45.044C33.1526 44.6745 32.8551 44.3749 32.4881 44.3749C32.1211 44.3749 31.8235 44.6745 31.8235 45.044C31.8235 45.4135 32.1211 45.713 32.4881 45.713Z" fill="#6C63FF"/>
<path d="M63.5507 35.1492C63.4502 35.0066 63.3821 34.8435 63.351 34.6715C63.3199 34.4995 63.3267 34.3228 63.3708 34.1537C63.4149 33.9846 63.4953 33.8273 63.6064 33.6929C63.7174 33.5585 63.8563 33.4502 64.0134 33.3757L67.3048 23.0005L69.597 24.1993L65.641 34.0209C65.7478 34.2948 65.7511 34.5987 65.6502 34.875C65.5493 35.1513 65.3513 35.3807 65.0936 35.5197C64.836 35.6588 64.5366 35.6979 64.2522 35.6296C63.9678 35.5613 63.7182 35.3904 63.5507 35.1492V35.1492Z" fill="#9F616A"/>
<path d="M66.2396 24.4353C66.2081 24.3651 66.192 24.2888 66.1924 24.2118C66.1929 24.1347 66.2098 24.0587 66.2421 23.9888L67.3694 21.5488C67.4806 21.1707 67.7361 20.8525 68.0799 20.6639C68.4238 20.4753 68.8279 20.4316 69.2037 20.5425C69.5794 20.6534 69.8962 20.9097 70.0845 21.2554C70.2728 21.6011 70.3173 22.0078 70.2081 22.3864L69.8314 25.0595C69.8206 25.1357 69.7936 25.2088 69.7523 25.2736C69.711 25.3385 69.6563 25.3936 69.5919 25.4352C69.5275 25.4769 69.4549 25.5041 69.3791 25.5149C69.3034 25.5258 69.2262 25.5201 69.1528 25.4982L66.5738 24.7289C66.5004 24.707 66.4325 24.6695 66.3748 24.6188C66.3171 24.5682 66.271 24.5055 66.2396 24.4353Z" fill="#6C63FF"/>
<path d="M75.7481 24.847L75.5643 27.4386L69.3128 29.6599L69.2209 27.1609L75.7481 24.847Z" fill="#9F616A"/>
<path d="M67.75 21.0523L69.7725 19.5715L73.0821 18.6459L75.8401 19.2013L76.2997 23.5513L75.7481 26.3279L68.5774 27.9939L67.8419 26.6982C67.8419 26.6982 66.1871 25.0322 67.4742 23.1811L67.75 21.0523Z" fill="#6C63FF"/>
<path d="M67.0145 17.2514V14.8207C67.0145 13.7924 67.4202 12.8061 68.1425 12.079C68.8648 11.3518 69.8444 10.9433 70.8659 10.9433C71.8873 10.9433 72.867 11.3518 73.5892 12.079C74.3115 12.8061 74.7173 13.7924 74.7173 14.8207V17.2514C74.7172 17.3895 74.6626 17.5219 74.5656 17.6195C74.4686 17.7172 74.3371 17.7721 74.1999 17.7722H67.5318C67.3947 17.7721 67.2631 17.7171 67.1662 17.6195C67.0692 17.5219 67.0146 17.3895 67.0145 17.2514Z" fill="#2F2E41"/>
<path d="M70.7111 17.7484C72.2706 17.7484 73.5348 16.4756 73.5348 14.9055C73.5348 13.3355 72.2706 12.0627 70.7111 12.0627C69.1516 12.0627 67.8874 13.3355 67.8874 14.9055C67.8874 16.4756 69.1516 17.7484 70.7111 17.7484Z" fill="#9F616A"/>
<path d="M67.8099 14.8946C67.7829 14.8632 67.7629 14.8264 67.7513 14.7866C67.7397 14.7468 67.7367 14.705 67.7426 14.6639L68.0771 12.3189C68.0837 12.2712 68.102 12.2259 68.1304 12.1872C68.1588 12.1484 68.1964 12.1173 68.2397 12.0968C69.947 11.2924 71.6783 11.2914 73.3857 12.0938C73.4309 12.1154 73.4699 12.1485 73.4987 12.1898C73.5275 12.2311 73.5451 12.2792 73.5499 12.3295L73.7732 14.6775C73.777 14.7176 73.7725 14.7581 73.7598 14.7964C73.7472 14.8347 73.7267 14.8698 73.6998 14.8997C73.6729 14.9295 73.64 14.9534 73.6034 14.9697C73.5667 14.986 73.5271 14.9944 73.4871 14.9944H72.9208C72.8661 14.9943 72.8126 14.9785 72.7665 14.949C72.7204 14.9194 72.6836 14.8773 72.6603 14.8275L72.4159 14.3003C72.4001 14.2661 72.3737 14.2381 72.3407 14.2204C72.3077 14.2027 72.2698 14.1963 72.2329 14.2022C72.1959 14.208 72.1618 14.2258 72.1358 14.2529C72.1098 14.2799 72.0932 14.3148 72.0886 14.3522L72.0403 14.7409C72.0315 14.8108 71.9977 14.8752 71.9452 14.9218C71.8927 14.9685 71.8251 14.9943 71.7551 14.9944H68.0271C67.9859 14.9944 67.9452 14.9855 67.9077 14.9683C67.8702 14.9511 67.8368 14.9259 67.8099 14.8946Z" fill="#2F2E41"/>
<path d="M80.0676 33.9386C79.8985 33.8991 79.74 33.8227 79.6034 33.7148C79.4667 33.6069 79.3552 33.4702 79.2767 33.3143C79.1983 33.1583 79.1547 32.9869 79.1491 32.8122C79.1436 32.6375 79.1761 32.4636 79.2445 32.3029L74.8658 22.3435L77.3706 21.7083L80.8871 31.6979C81.1477 31.8314 81.3505 32.0565 81.4572 32.3306C81.5638 32.6046 81.567 32.9085 81.466 33.1847C81.3649 33.4609 81.1668 33.6902 80.9091 33.8292C80.6514 33.9681 80.352 34.0071 80.0676 33.9386Z" fill="#9F616A"/>
<path d="M75.015 24.1284C74.9452 24.0969 74.8829 24.0506 74.8324 23.9927C74.7819 23.9348 74.7445 23.8666 74.7226 23.7928L73.957 21.2144C73.7909 20.8574 73.7722 20.4486 73.905 20.0778C74.0378 19.7069 74.3113 19.4042 74.6654 19.236C75.0196 19.0678 75.4256 19.0479 75.7943 19.1806C76.1631 19.3133 76.4645 19.5878 76.6325 19.9439L78.113 22.195C78.1553 22.2593 78.1833 22.3319 78.1951 22.408C78.207 22.4842 78.2024 22.562 78.1817 22.6361C78.1609 22.7103 78.1246 22.7791 78.0751 22.8379C78.0256 22.8966 77.9641 22.9439 77.8947 22.9766L75.4586 24.1247C75.3893 24.1574 75.3137 24.1746 75.2372 24.1753C75.1607 24.1759 75.0849 24.1599 75.015 24.1284Z" fill="#6C63FF"/>
<path d="M75.4336 58.2451L73.8398 58.245L73.0817 52.0563L75.4338 52.0564L75.4336 58.2451Z" fill="#9F616A"/>
<path d="M75.84 59.8004L70.7011 59.8002V59.7348C70.7011 59.2007 70.9119 58.6886 71.287 58.3109C71.6621 57.9333 72.1708 57.7212 72.7013 57.7211H72.7014L75.8401 57.7213L75.84 59.8004Z" fill="#2F2E41"/>
<path d="M74.2223 45.1783L73.1358 46.3521L68.1215 42.6915L69.7251 40.9591L74.2223 45.1783Z" fill="#9F616A"/>
<path d="M75.6296 45.9392L72.1262 49.7241L72.0787 49.6795C71.6906 49.3154 71.4621 48.8111 71.4434 48.2773C71.4247 47.7436 71.6173 47.2243 71.9789 46.8335L71.979 46.8334L74.1187 44.5217L75.6296 45.9392Z" fill="#2F2E41"/>
<path d="M75.932 27.4386L76.4417 27.9518C78.9913 30.5186 79.619 34.0777 79.3128 37.6946C79.2699 38.2309 79.1846 38.7629 79.0577 39.2855C78.1384 42.9877 78.69 54.8347 76.8513 55.5751L76.4836 56.8709L72.8982 56.7375L72.9901 55.5751C72.9901 55.5751 72.1627 53.8166 72.7143 52.7059C73.2659 51.5953 74.461 43.3579 74.461 43.3579L73.8175 36.6015L69.037 39.0079C69.037 39.0079 71.5192 40.3962 71.3353 41.3217C71.3353 41.3217 72.8062 41.692 72.4385 42.6175L72.9901 43.7282L71.703 45.7643C71.703 45.7643 63.0613 40.5813 63.7968 37.9898C64.5323 35.3983 69.1289 33.5472 69.1289 33.5472L69.4967 30.7706L69.1796 29.2576L75.6118 26.7684L75.932 27.4386Z" fill="#2F2E41"/>
<path d="M97.382 60H44.997C44.9658 60 44.9357 59.9875 44.9136 59.9652C44.8915 59.9429 44.8791 59.9127 44.8791 59.8812C44.8791 59.8497 44.8915 59.8195 44.9136 59.7972C44.9357 59.775 44.9658 59.7625 44.997 59.7625H97.382C97.4133 59.7625 97.4433 59.775 97.4655 59.7972C97.4876 59.8195 97.5 59.8497 97.5 59.8812C97.5 59.9127 97.4876 59.9429 97.4655 59.9652C97.4433 59.9875 97.4133 60 97.382 60Z" fill="#CBCBCB"/>
</g>
<defs>
<clipPath id="clip0_137_669">
<rect width="97.5" height="60" fill="white"/>
</clipPath>
</defs>
</svg>
