<svg version="1.1" id="Layer_1" xmlns="http://www.w3.org/2000/svg" xmlns:xlink="http://www.w3.org/1999/xlink" x="0px" y="0px"
	 width="100%" viewBox="0 0 600 300" enable-background="new 0 0 600 300" xml:space="preserve">
<path fill="#007A3D" opacity="1.000000" stroke="none" 
	d="
M601.000000,201.000000 
	C601.000000,234.312622 601.000000,267.625244 601.000000,301.000000 
	C401.644653,301.000000 202.289322,301.000000 2.600027,300.683502 
	C41.124584,277.907532 79.966713,255.419662 118.848671,233.000885 
	C137.561737,222.211197 156.349945,211.551819 175.564011,200.886642 
	C177.856613,200.959930 179.689316,200.997528 181.522034,200.997574 
	C321.348022,201.000290 461.174011,201.000031 601.000000,201.000000 
z"/>
<path fill="#000000" opacity="1.000000" stroke="none" 
	d="
M4.000000,1.000000 
	C202.875977,1.000000 401.751953,1.000000 601.000000,1.000000 
	C601.000000,34.021080 601.000000,67.043556 600.531372,100.532959 
	C460.577820,100.999908 321.092957,100.999184 181.608078,101.006775 
	C179.444336,101.006889 177.280609,101.109596 174.772903,101.052002 
	C167.056656,96.728989 159.668564,92.545784 152.314651,88.303345 
	C103.992477,60.426464 55.671577,32.547333 7.391617,4.597499 
	C6.024904,3.806293 5.120156,2.217102 4.000000,1.000000 
z"/>
<path fill="#CE1126" opacity="1.000000" stroke="none" 
	d="
M3.500000,1.000000 
	C5.120156,2.217102 6.024904,3.806293 7.391617,4.597499 
	C55.671577,32.547333 103.992477,60.426464 152.314651,88.303345 
	C159.668564,92.545784 167.056656,96.728989 174.952423,101.329559 
	C203.729187,118.032761 231.982452,134.345993 260.814941,150.993652 
	C253.913834,154.986938 247.874664,158.464584 241.851517,161.969772 
	C219.599533,174.919403 197.352829,187.878128 175.104126,200.833435 
	C156.349945,211.551819 137.561737,222.211197 118.848671,233.000885 
	C79.966713,255.419662 41.124584,277.907532 2.133041,300.683502 
	C1.666664,299.503021 1.042345,298.006195 1.041587,296.509033 
	C0.995236,204.993393 1.000000,113.477722 1.000000,21.962049 
	C1.000000,15.639149 0.939441,9.314827 1.087692,2.995404 
	C1.103638,2.315689 2.333333,1.664449 3.500000,1.000000 
z"/>
<path fill="#FFFFFF" opacity="1.000000" stroke="none" 
	d="
M175.564011,200.886642 
	C197.352829,187.878128 219.599533,174.919403 241.851517,161.969772 
	C247.874664,158.464584 253.913834,154.986938 260.814941,150.993652 
	C231.982452,134.345993 203.729187,118.032761 175.296387,101.441978 
	C177.280609,101.109596 179.444336,101.006889 181.608078,101.006775 
	C321.092957,100.999184 460.577820,100.999908 600.531372,100.999947 
	C601.000000,134.020889 601.000000,167.041794 601.000000,200.531342 
	C461.174011,201.000031 321.348022,201.000290 181.522034,200.997574 
	C179.689316,200.997528 177.856613,200.959930 175.564011,200.886642 
z"/>
</svg>