<?xml version="1.0" encoding="UTF-8" standalone="no"?>
<!-- Created with Inkscape (http://www.inkscape.org/) -->

<svg
   version="1.1"
   id="svg2"
   width="2653.3333"
   height="1400"
   viewBox="0 0 2653.3333 1400"
   sodipodi:docname="27015.eps"
   xmlns:inkscape="http://www.inkscape.org/namespaces/inkscape"
   xmlns:sodipodi="http://sodipodi.sourceforge.net/DTD/sodipodi-0.dtd"
   xmlns="http://www.w3.org/2000/svg"
   xmlns:svg="http://www.w3.org/2000/svg">
  <defs
     id="defs6" />
  <sodipodi:namedview
     id="namedview4"
     pagecolor="#ffffff"
     bordercolor="#000000"
     borderopacity="0.25"
     inkscape:showpageshadow="2"
     inkscape:pageopacity="0.0"
     inkscape:pagecheckerboard="0"
     inkscape:deskcolor="#d1d1d1" />
  <g
     id="g8"
     inkscape:groupmode="layer"
     inkscape:label="ink_ext_XXXXXX"
     transform="matrix(1.3333333,0,0,-1.3333333,0,1400)">
    <g
       id="g10"
       transform="scale(0.1)">
      <path
         d="M 19900,0 H 0 V 10500 H 19900 V 0"
         style="fill:#de2910;fill-opacity:1;fill-rule:nonzero;stroke:none"
         id="path12" />
      <path
         d="m 2630.3,9510.31 364.06,-1120.78 h 1178.11 l -953.12,-692.68 364.04,-1120.78 -953.09,692.68 -953.11,-692.68 364.06,1120.78 -953.11,692.68 h 1178.1 l 364.06,1120.78"
         style="fill:#ffde00;fill-opacity:1;fill-rule:nonzero;stroke:none"
         id="path14" />
      <path
         d="m 5466.27,9936.6 -37.03,-374.22 344.36,-150.88 -367.24,-80.42 -37.03,-374.22 -189.94,324.52 -367.25,-80.4 249.84,280.98 -189.94,324.52 344.38,-150.86 249.85,280.98"
         style="fill:#ffde00;fill-opacity:1;fill-rule:nonzero;stroke:none"
         id="path16" />
      <path
         d="m 6687.57,8763.94 -174.88,-332.89 262.44,-269.23 -370.53,63.5 -174.9,-332.87 -54.1,372.13 -370.54,63.52 337.08,166.48 -54.11,372.12 262.44,-269.23 337.1,166.47"
         style="fill:#ffde00;fill-opacity:1;fill-rule:nonzero;stroke:none"
         id="path18" />
      <path
         d="m 6303.85,7341.35 128.28,-354.75 376.92,12.44 -297.64,-231.66 128.29,-354.75 -312.22,211.57 -297.64,-231.65 104.66,362.41 -312.22,211.56 376.9,12.42 104.67,362.41"
         style="fill:#ffde00;fill-opacity:1;fill-rule:nonzero;stroke:none"
         id="path20" />
      <path
         d="m 5445.74,6262.69 -20.45,-376.69 351.82,-135.85 -364.46,-96.96 -20.44,-376.66 -204.8,316.76 -364.44,-96.95 237.86,292.71 -204.78,316.76 351.81,-135.85 237.88,292.73"
         style="fill:#ffde00;fill-opacity:1;fill-rule:nonzero;stroke:none"
         id="path22" />
    </g>
  </g>
</svg>
