<svg width="20" height="20" viewBox="0 0 20 20" fill="none" xmlns="http://www.w3.org/2000/svg">
<path d="M1.66659 4.39167L2.73325 3.33334L16.6666 17.2667L15.6083 18.3333L13.0416 15.7667C12.0833 16.0833 11.0666 16.25 9.99992 16.25C5.83325 16.25 2.27492 13.6583 0.833252 10C1.40825 8.53334 2.32492 7.24167 3.49159 6.21667L1.66659 4.39167ZM9.99992 7.5C10.663 7.5 11.2988 7.76339 11.7677 8.23224C12.2365 8.70108 12.4999 9.33696 12.4999 10C12.5003 10.2838 12.4524 10.5656 12.3583 10.8333L9.16659 7.64167C9.43431 7.54749 9.71611 7.49958 9.99992 7.5ZM9.99992 3.75C14.1666 3.75 17.7249 6.34167 19.1666 10C18.4865 11.7277 17.3307 13.2273 15.8333 14.325L14.6499 13.1333C15.8023 12.3362 16.7318 11.2575 17.3499 10C16.6762 8.62495 15.6303 7.46648 14.331 6.65626C13.0317 5.84604 11.5311 5.41657 9.99992 5.41667C9.09159 5.41667 8.19992 5.56667 7.36659 5.83334L6.08325 4.55834C7.28325 4.04167 8.60825 3.75 9.99992 3.75ZM2.64992 10C3.32362 11.3751 4.36956 12.5335 5.66886 13.3437C6.96816 14.154 8.4687 14.5834 9.99992 14.5833C10.5749 14.5833 11.1416 14.525 11.6666 14.4083L9.76659 12.5C9.18672 12.4378 8.64561 12.1791 8.23323 11.7667C7.82086 11.3543 7.56207 10.8132 7.49992 10.2333L4.66659 7.39167C3.84159 8.1 3.14992 8.98334 2.64992 10Z" fill="#C1C1C1"/>
</svg>
