<svg width="20" height="21" viewBox="0 0 20 21" fill="none" xmlns="http://www.w3.org/2000/svg">
<path d="M0 0.75C0 0.551088 0.0790176 0.360322 0.21967 0.21967C0.360322 0.0790176 0.551088 0 0.75 0H18.75C18.9489 0 19.1397 0.0790176 19.2803 0.21967C19.421 0.360322 19.5 0.551088 19.5 0.75V3.75C19.5 3.93496 19.4316 4.11339 19.308 4.251L12.75 11.538V18.75C12.7499 18.9073 12.7003 19.0607 12.6082 19.1883C12.5161 19.3159 12.3863 19.4113 12.237 19.461L7.737 20.961C7.62431 20.9985 7.50432 21.0088 7.3869 20.9909C7.26948 20.9729 7.158 20.9274 7.06162 20.858C6.96525 20.7886 6.88674 20.6972 6.83257 20.5915C6.77839 20.4858 6.75009 20.3688 6.75 20.25V11.538L0.192 4.251C0.0684123 4.11339 3.32255e-05 3.93496 0 3.75V0.75ZM1.5 1.5V3.462L8.058 10.749C8.18159 10.8866 8.24997 11.065 8.25 11.25V19.209L11.25 18.21V11.25C11.25 11.065 11.3184 10.8866 11.442 10.749L18 3.462V1.5H1.5Z" fill="#5B5B5B"/>
</svg>
