<svg width="117" height="36" viewBox="0 0 117 36" fill="none" xmlns="http://www.w3.org/2000/svg">
<path fill-rule="evenodd" clip-rule="evenodd" d="M7.13456 0.87191C3.89392 1.57689 1.41647 4.1837 0.862495 7.47171C0.720541 8.31421 0.674583 11.835 0.711314 19.0623C0.763482 29.3293 0.76845 29.4542 1.16291 30.5004C2.01534 32.7599 3.74044 34.5867 5.82113 35.4335L6.79706 35.8306L24.1352 35.8792C41.3451 35.9273 41.4816 35.925 42.5892 35.5548C45.4432 34.6011 47.3565 32.4693 47.9744 29.5546C48.1715 28.6243 48.2244 26.276 48.2269 18.3323C48.2287 12.2277 48.1589 7.91212 48.0487 7.33171C47.4394 4.11875 44.9195 1.5485 41.7124 0.868894C40.0115 0.508508 8.79258 0.51117 7.13456 0.87191ZM17.3549 12.8518V14.4488H14.782H12.2091V15.6908V16.9329H14.6933H17.1775V18.4412V19.9495H14.6933H12.2091V22.5224V25.0953H10.5234H8.83765V18.175V11.2548H13.0963H17.3549V12.8518ZM22.1458 15.8419C22.1458 20.8331 22.2307 21.3976 23.0435 21.8179C23.6898 22.1522 24.8605 22.1522 25.5068 21.8179C26.3196 21.3976 26.4045 20.8331 26.4045 15.8419V11.2548H28.0014H29.5984V16.3357C29.5984 19.8396 29.5308 21.6432 29.3804 22.1469C29.0468 23.2639 27.6137 24.6386 26.4165 24.9899C25.1872 25.3506 23.3629 25.3515 22.1519 24.9919C20.9573 24.6371 19.4902 23.2384 19.1676 22.1469C19.0202 21.6481 18.9519 19.8063 18.9519 16.3357V11.2548H20.5489H22.1458V15.8419ZM40.4224 12.8518V14.4488H37.7608H35.0991V15.5134V16.5781H37.4946H39.8901V18.0863V19.5946H37.4946H35.0991V20.748V21.9013H37.7608H40.4224V23.4983V25.0953H36.0751H31.7277V18.175V11.2548H36.0751H40.4224V12.8518ZM52.3111 18.3525V25.4502H53.7306H55.1502V18.3525V11.2548H53.7306H52.3111V18.3525ZM60.1186 15.7861C58.329 16.3417 57.101 18.062 56.9649 20.2037C56.8678 21.7338 57.104 22.6725 57.8636 23.7748C58.7203 25.0179 60.0233 25.7007 61.5388 25.7007C62.4995 25.7007 62.8645 25.612 63.5451 25.2131C64.342 24.7461 64.3772 24.7408 64.3772 25.0879C64.3772 25.4225 64.4858 25.4502 65.7967 25.4502H67.2163V20.6592V15.8683H65.7967C64.4799 15.8683 64.3772 15.8949 64.3772 16.2352C64.3772 16.6013 64.3761 16.6015 63.8892 16.2555C62.8698 15.5308 61.4925 15.3594 60.1186 15.7861ZM73.9694 15.7111C73.6335 15.8128 73.1544 16.0574 72.9047 16.2548L72.4508 16.6135L72.394 16.2409C72.342 15.8985 72.2233 15.8683 70.9301 15.8683H69.523V20.6592V25.4502H70.9426H72.3621V22.5135C72.3621 18.7265 72.6054 18.175 74.2763 18.175C74.7687 18.175 75.1091 18.3021 75.4414 18.6101L75.9109 19.0454V22.2477V25.4502H77.3305H78.75V22.0165C78.75 19.9213 78.6712 18.3477 78.5481 17.9797C78.2709 17.1521 77.5908 16.2752 76.9816 15.9602C76.3068 15.6112 74.7294 15.4808 73.9694 15.7111ZM84.3395 15.6866C82.7687 16.0904 81.4876 17.1553 80.8838 18.5589C80.3559 19.786 80.3522 21.5236 80.8747 22.7383C82.2783 26.0011 86.7346 26.7469 89.2626 24.1421C90.0467 23.334 90.0451 23.3303 88.487 22.4589C87.5943 21.9595 87.4644 21.9299 87.2579 22.1789C86.901 22.6088 86.1 22.966 85.4928 22.966C83.2693 22.966 82.3966 19.8863 84.2845 18.7013C85.0936 18.1935 86.409 18.3007 87.0338 18.9256L87.4786 19.3703L88.7006 18.6628L89.9229 17.9552L89.5439 17.423C88.5562 16.0358 86.1299 15.2263 84.3395 15.6866ZM94.1526 15.7512C92.2546 16.2862 91.0209 17.6558 90.6467 19.6434C90.4396 20.7441 90.5377 21.6785 90.9842 22.8526C91.2863 23.6474 92.5517 24.8572 93.5262 25.2829C94.7779 25.8297 96.9331 25.8533 98.0913 25.3329C98.8809 24.978 100.043 24.1119 100.043 23.8784C100.043 23.812 99.5537 23.4886 98.9554 23.1598C97.9325 22.5973 97.8402 22.5776 97.4028 22.8281C96.2281 23.5008 94.7529 23.3184 93.9283 22.3987L93.4027 21.8126L96.9448 21.7239L100.487 21.6352L100.542 20.7732C100.662 18.8761 99.3369 16.6182 97.7236 15.9726C96.7132 15.5684 95.1462 15.4712 94.1526 15.7512ZM111.637 15.6729C110.102 16.0672 109.249 16.9968 109.133 18.4048C108.99 20.1258 109.645 20.8482 112.057 21.6288C113.982 22.252 114.346 22.7316 113.22 23.1598C112.638 23.381 111.674 23.0755 111.308 22.554L111.039 22.1691L109.889 22.7894C109.256 23.1305 108.738 23.5217 108.738 23.6589C108.738 24.0885 110.124 25.2493 110.912 25.4791C111.326 25.6001 112.235 25.6949 112.93 25.6899C115.211 25.6736 116.536 24.6799 116.686 22.8737C116.78 21.7376 116.366 20.7632 115.584 20.2797C115.283 20.0941 114.373 19.7378 113.562 19.4881C112.063 19.0266 111.718 18.7351 112.111 18.2615C112.447 17.8574 113.308 17.9385 113.789 18.4196L114.211 18.8413L115.334 18.2224C115.951 17.8819 116.48 17.5824 116.508 17.5567C116.653 17.4257 115.525 16.3399 114.928 16.0354C114.155 15.6412 112.48 15.4566 111.637 15.6729ZM106.612 16.0017C106.272 16.1723 105.813 16.5832 105.592 16.9148L105.189 17.5178V16.693V15.8683H103.769H102.35V20.6592V25.4502H103.769H105.189V22.9571C105.189 20.1849 105.346 19.6203 106.247 19.1547C106.532 19.0071 107.049 18.866 107.397 18.8412L108.027 18.7961L108.028 17.2435C108.028 15.7515 108.012 15.6908 107.629 15.6912C107.409 15.6912 106.952 15.831 106.612 16.0017ZM96.6698 18.2627C96.9517 18.4086 97.3071 18.7058 97.4594 18.9233C98.012 19.7122 97.8815 19.772 95.6071 19.772C94.2576 19.772 93.4778 19.7048 93.4778 19.5884C93.4778 19.2058 94.1029 18.4735 94.6226 18.2471C95.3414 17.9339 96.0443 17.9394 96.6698 18.2627ZM63.0222 18.4197C63.9471 18.806 64.3772 19.4881 64.3772 20.5682C64.3772 22.8047 62.0639 23.9064 60.4312 22.4475C59.9363 22.0055 59.8639 21.8183 59.8008 20.8157C59.7395 19.8437 59.7862 19.6113 60.1306 19.1744C60.8519 18.26 61.9526 17.9728 63.0222 18.4197Z" fill="white"/>
</svg>
