<svg width="23" height="20" viewBox="0 0 23 20" fill="none" xmlns="http://www.w3.org/2000/svg">
<path d="M10.875 19.3939L15.4 7.75758H17.45L22.1 19.3939H19.925L18.9 16.3394H14.1L12.925 19.3939H10.875ZM14.65 14.6424H18.2L16.45 9.9394H16.4L14.65 14.6424ZM3 16.4849L1.625 15.1515L6.725 10.2061C6.09167 9.49496 5.52917 8.7798 5.0375 8.06061C4.54583 7.34142 4.11667 6.59395 3.75 5.81819H5.925C6.20833 6.35152 6.52083 6.85657 6.8625 7.33334C7.20417 7.81011 7.59167 8.299 8.025 8.80001C8.775 8.04041 9.4 7.25253 9.9 6.43637C10.4 5.62021 10.825 4.76768 11.175 3.87879H0V1.9394H7V7.62939e-06H9V1.9394H16V3.87879H13.175C12.8083 4.99395 12.3208 6.0889 11.7125 7.16364C11.1042 8.23839 10.3583 9.26061 9.475 10.2303L11.925 12.6303L11.175 14.5939L8 11.6364L3 16.4849Z" fill="#5B5B5B"/>
</svg>
