<svg width="16" height="20" viewBox="0 0 16 20" fill="none" xmlns="http://www.w3.org/2000/svg">
<path d="M8 9.45455C8.48334 9.45455 8.89584 9.2889 9.2375 8.95758C9.57917 8.62627 9.75 8.22627 9.75 7.75758C9.75 7.2889 9.57917 6.8889 9.2375 6.55758C8.89584 6.22627 8.48334 6.06061 8 6.06061C7.51667 6.06061 7.10417 6.22627 6.7625 6.55758C6.42083 6.8889 6.25 7.2889 6.25 7.75758C6.25 8.22627 6.42083 8.62627 6.7625 8.95758C7.10417 9.2889 7.51667 9.45455 8 9.45455ZM8 17.4788C10.2167 15.5232 11.8542 13.7495 12.9125 12.1576C13.9708 10.5657 14.5 9.16364 14.5 7.95152C14.5 6.04445 13.8708 4.48486 12.6125 3.27273C11.3542 2.06061 9.81667 1.45455 8 1.45455C6.18333 1.45455 4.64583 2.06061 3.3875 3.27273C2.12917 4.48486 1.5 6.04445 1.5 7.95152C1.5 9.16364 2.04167 10.5657 3.125 12.1576C4.20833 13.7495 5.83333 15.5232 8 17.4788ZM8 19.3939C5.31667 17.1798 3.3125 15.1232 1.9875 13.2242C0.6625 11.3253 0 9.56768 0 7.95152C0 5.52728 0.804167 3.59597 2.4125 2.15758C4.02083 0.719199 5.88333 7.62939e-06 8 7.62939e-06C10.1167 7.62939e-06 11.9792 0.719199 13.5875 2.15758C15.1958 3.59597 16 5.52728 16 7.95152C16 9.56768 15.3375 11.3253 14.0125 13.2242C12.6875 15.1232 10.6833 17.1798 8 19.3939Z" fill="#5B5B5B"/>
</svg>
