<svg width="22" height="14" viewBox="0 0 22 14" fill="none" xmlns="http://www.w3.org/2000/svg">
<path d="M1.5 13.5758C1.08333 13.5758 0.729167 13.4344 0.4375 13.1515C0.145833 12.8687 0 12.5253 0 12.1212V1.45455C0 1.05051 0.145833 0.707078 0.4375 0.42425C0.729167 0.141422 1.08333 7.62939e-06 1.5 7.62939e-06H12.5C12.9167 7.62939e-06 13.2708 0.141422 13.5625 0.42425C13.8542 0.707078 14 1.05051 14 1.45455V12.1212C14 12.5253 13.8542 12.8687 13.5625 13.1515C13.2708 13.4344 12.9167 13.5758 12.5 13.5758H1.5ZM17 5.81819C16.7167 5.81819 16.4792 5.72526 16.2875 5.5394C16.0958 5.35354 16 5.12324 16 4.84849V0.969705C16 0.694957 16.0958 0.464654 16.2875 0.278795C16.4792 0.0929368 16.7167 7.62939e-06 17 7.62939e-06H21C21.2833 7.62939e-06 21.5208 0.0929368 21.7125 0.278795C21.9042 0.464654 22 0.694957 22 0.969705V4.84849C22 5.12324 21.9042 5.35354 21.7125 5.5394C21.5208 5.72526 21.2833 5.81819 21 5.81819H17ZM17.5 4.36364H20.5V1.45455H17.5V4.36364ZM1.5 12.1212H12.5V1.45455H1.5V12.1212ZM3 9.69698H11L8.375 6.30304L6.5 8.72728L5.125 6.95758L3 9.69698ZM17 13.5758C16.7167 13.5758 16.4792 13.4828 16.2875 13.297C16.0958 13.1111 16 12.8808 16 12.6061V8.72728C16 8.45253 16.0958 8.22223 16.2875 8.03637C16.4792 7.85051 16.7167 7.75758 17 7.75758H21C21.2833 7.75758 21.5208 7.85051 21.7125 8.03637C21.9042 8.22223 22 8.45253 22 8.72728V12.6061C22 12.8808 21.9042 13.1111 21.7125 13.297C21.5208 13.4828 21.2833 13.5758 21 13.5758H17ZM17.5 12.1212H20.5V9.21213H17.5V12.1212ZM1.5 12.1212V1.45455V12.1212ZM17.5 4.36364V1.45455V4.36364ZM17.5 12.1212V9.21213V12.1212Z" fill="#5B5B5B"/>
</svg>
