<svg width="20" height="16" viewBox="0 0 20 16" fill="none" xmlns="http://www.w3.org/2000/svg">
<path d="M0 15.5152V5.33334C0 4.94546 0.15 4.60607 0.45 4.31516C0.75 4.02425 1.1 3.8788 1.5 3.8788H5V1.45455C5 1.06667 5.15 0.72728 5.45 0.436371C5.75 0.145462 6.1 7.62939e-06 6.5 7.62939e-06H13.5C13.9 7.62939e-06 14.25 0.145462 14.55 0.436371C14.85 0.72728 15 1.06667 15 1.45455V3.8788H18.5C18.9 3.8788 19.25 4.02425 19.55 4.31516C19.85 4.60607 20 4.94546 20 5.33334V15.5152H0ZM1.5 14.0606H18.5V10.4243H15.75V11.3939H14.25V10.4243H5.75V11.3939H4.25V10.4243H1.5V14.0606ZM1.5 5.33334V8.96971H4.25V8.00001H5.75V8.96971H14.25V8.00001H15.75V8.96971H18.5V5.33334H1.5ZM6.5 3.8788H13.5V1.45455H6.5V3.8788Z" fill="#5B5B5B"/>
</svg>
