<?xml version="1.0" encoding="UTF-8" standalone="no"?>
<!-- Created with Inkscape (http://www.inkscape.org/) -->

<svg
   version="1.1"
   id="svg2"
   width="2653.3333"
   height="1400"
   viewBox="0 0 2653.3333 1400"
   sodipodi:docname="18166.eps"
   xmlns:inkscape="http://www.inkscape.org/namespaces/inkscape"
   xmlns:sodipodi="http://sodipodi.sourceforge.net/DTD/sodipodi-0.dtd"
   xmlns="http://www.w3.org/2000/svg"
   xmlns:svg="http://www.w3.org/2000/svg">
  <defs
     id="defs6" />
  <sodipodi:namedview
     id="namedview4"
     pagecolor="#ffffff"
     bordercolor="#000000"
     borderopacity="0.25"
     inkscape:showpageshadow="2"
     inkscape:pageopacity="0.0"
     inkscape:pagecheckerboard="0"
     inkscape:deskcolor="#d1d1d1" />
  <g
     id="g8"
     inkscape:groupmode="layer"
     inkscape:label="ink_ext_XXXXXX"
     transform="matrix(1.3333333,0,0,-1.3333333,0,1400)">
    <g
       id="g10"
       transform="scale(0.1)">
      <path
         d="M 19894.8,17.1016 H 0 V 10499.1 H 19894.8 V 17.1016"
         style="fill:#ffffff;fill-opacity:1;fill-rule:nonzero;stroke:none"
         id="path12" />
      <path
         d="m 19896.3,6304.75 h -8760 V 10498.4 H 8745.14 V 6304.75 H 8.33594 V 4209.08 H 8745.14 V 17.1992 H 11136.3 V 4209.08 h 8760 v 2095.67"
         style="fill:#ce1124;fill-opacity:1;fill-rule:nonzero;stroke:none"
         id="path14" />
      <path
         d="M 0.195313,9278.46 V 6996.24 H 4339.53 Z"
         style="fill:#00247d;fill-opacity:1;fill-rule:nonzero;stroke:none"
         id="path16" />
      <path
         d="m 2394.17,10499.5 -63.57,-2.9 5626.58,-2974.9 v 2977.8 H 2394.17"
         style="fill:#00247d;fill-opacity:1;fill-rule:nonzero;stroke:none"
         id="path18" />
      <path
         d="M 6677.93,7010.68 0.195313,10499 V 9676.77 L 5086.69,7010.68 h 1591.24"
         style="fill:#ce1124;fill-opacity:1;fill-rule:nonzero;stroke:none"
         id="path20" />
      <path
         d="M 13222.1,3506.4 19899.9,18.1016 V 840.313 L 14813.4,3506.4 h -1591.3"
         style="fill:#ce1124;fill-opacity:1;fill-rule:nonzero;stroke:none"
         id="path22" />
      <path
         d="M 0.195313,1221.04 V 3503.27 H 4339.53 Z"
         style="fill:#00247d;fill-opacity:1;fill-rule:nonzero;stroke:none"
         id="path24" />
      <path
         d="M 2394.17,0 2330.6,2.90234 7957.18,2977.78 V 0 H 2394.17"
         style="fill:#00247d;fill-opacity:1;fill-rule:nonzero;stroke:none"
         id="path26" />
      <path
         d="M 6643.78,3506.64 4.55469,19.9023 1557.29,18.3984 7963.55,3364.84 v 141.8 H 6643.78"
         style="fill:#ce1124;fill-opacity:1;fill-rule:nonzero;stroke:none"
         id="path28" />
      <path
         d="M 19900,9278.96 V 6996.75 h -4339.3 z"
         style="fill:#00247d;fill-opacity:1;fill-rule:nonzero;stroke:none"
         id="path30" />
      <path
         d="m 17506,10500 63.6,-2.9 L 11943,7522.22 V 10500 h 5563"
         style="fill:#00247d;fill-opacity:1;fill-rule:nonzero;stroke:none"
         id="path32" />
      <path
         d="m 19893.6,10495.1 -1493.5,0.1 -6451.4,-3369.99 v -118.24 h 1364.9 l 6580,3488.13"
         style="fill:#ce1124;fill-opacity:1;fill-rule:nonzero;stroke:none"
         id="path34" />
      <path
         d="M 19900,1221.89 V 3504.12 H 15560.7 Z"
         style="fill:#00247d;fill-opacity:1;fill-rule:nonzero;stroke:none"
         id="path36" />
      <path
         d="M 17506,0.898438 17569.6,3.69922 11943,2978.65 V 0.898438 h 5563"
         style="fill:#00247d;fill-opacity:1;fill-rule:nonzero;stroke:none"
         id="path38" />
    </g>
  </g>
</svg>
