<svg width="16" height="16" viewBox="0 0 16 16" fill="none" xmlns="http://www.w3.org/2000/svg">
<path d="M8 7.975C6.9 7.975 6 7.625 5.3 6.925C4.6 6.225 4.25 5.325 4.25 4.225C4.25 3.125 4.6 2.225 5.3 1.525C6 0.824999 6.9 0.474998 8 0.474998C9.1 0.474998 10 0.824999 10.7 1.525C11.4 2.225 11.75 3.125 11.75 4.225C11.75 5.325 11.4 6.225 10.7 6.925C10 7.625 9.1 7.975 8 7.975ZM0 16V13.65C0 13.0167 0.158333 12.475 0.475 12.025C0.791667 11.575 1.2 11.2333 1.7 11C2.81667 10.5 3.8875 10.125 4.9125 9.875C5.9375 9.625 6.96667 9.5 8 9.5C9.03334 9.5 10.0583 9.62916 11.075 9.8875C12.0917 10.1458 13.1583 10.5167 14.275 11C14.7917 11.2333 15.2083 11.575 15.525 12.025C15.8417 12.475 16 13.0167 16 13.65V16H0ZM1.5 14.5H14.5V13.65C14.5 13.3833 14.4208 13.1292 14.2625 12.8875C14.1042 12.6458 13.9083 12.4667 13.675 12.35C12.6083 11.8333 11.6333 11.4792 10.75 11.2875C9.86667 11.0958 8.95 11 8 11C7.05 11 6.125 11.0958 5.225 11.2875C4.325 11.4792 3.35 11.8333 2.3 12.35C2.06667 12.4667 1.875 12.6458 1.725 12.8875C1.575 13.1292 1.5 13.3833 1.5 13.65V14.5ZM8 6.475C8.65 6.475 9.1875 6.2625 9.6125 5.8375C10.0375 5.4125 10.25 4.875 10.25 4.225C10.25 3.575 10.0375 3.0375 9.6125 2.6125C9.1875 2.1875 8.65 1.975 8 1.975C7.35 1.975 6.8125 2.1875 6.3875 2.6125C5.9625 3.0375 5.75 3.575 5.75 4.225C5.75 4.875 5.9625 5.4125 6.3875 5.8375C6.8125 6.2625 7.35 6.475 8 6.475Z" fill="#009EFF"/>
</svg>
