<svg width="47" height="37" viewBox="0 0 47 37" fill="none" xmlns="http://www.w3.org/2000/svg">
<rect width="46.6522" height="37" rx="8.04348" fill="#18C29C"/>
<path d="M16.1888 14.9598H11.0731V17.5659H16.0923V20.5388H11.0731V25.5H7.98443V11.987H16.1888V14.9598ZM23.1293 25.7703C20.1564 25.7703 17.9171 24.0329 17.9171 21.1372V11.987H21.0058V20.867C21.0058 21.8901 21.4884 22.7588 23.1293 22.7588C24.7702 22.7588 25.2528 21.8901 25.2528 20.867V11.987H28.3415V21.1372C28.3415 24.0329 26.1022 25.7703 23.1293 25.7703ZM33.6577 22.5271H39.0629V25.5H30.569V11.987H38.9664V14.9598H33.6577V17.1991H38.4838V20.1334H33.6577V22.5271Z" fill="white"/>
</svg>
